<?xml version="1.0" encoding="UTF-8" standalone="no"?>
<!DOCTYPE svg PUBLIC "-//W3C//DTD SVG 1.0//EN" "http://www.w3.org/TR/2001/REC-SVG-20010904/DTD/svg10.dtd">
<!-- Generated by Microsoft Visio 11.0, SVG Export, v1.0 avalon-waveforms-no-wait.svg Page-1 -->
<svg xmlns="http://www.w3.org/2000/svg" xmlns:xlink="http://www.w3.org/1999/xlink" xmlns:ev="http://www.w3.org/2001/xml-events"
		xmlns:v="http://schemas.microsoft.com/visio/2003/SVGExtensions/" width="10.3358in" height="5.13894in"
		viewBox="0 0 744.177 370.004" xml:space="preserve" color-interpolation-filters="sRGB" class="st16">
	<v:documentProperties v:langID="2057" v:metric="true" v:viewMarkup="false"/>

	<style type="text/css">
	<![CDATA[
		.st1 {fill:#ffffff;stroke:none;stroke-linecap:round;stroke-linejoin:round;stroke-width:0.75}
		.st2 {stroke:#c4d6a0;stroke-linecap:round;stroke-linejoin:round;stroke-width:2.25}
		.st3 {stroke:#d99690;stroke-linecap:round;stroke-linejoin:round;stroke-width:2.25}
		.st4 {stroke:#92cddc;stroke-linecap:round;stroke-linejoin:round;stroke-width:2.25}
		.st5 {stroke:#000000;stroke-linecap:round;stroke-linejoin:round;stroke-width:0.75}
		.st6 {fill:none;stroke:none;stroke-linecap:round;stroke-linejoin:round;stroke-width:0.75}
		.st7 {fill:#000000;font-family:Calibri;font-size:1.5em}
		.st8 {stroke:#000000;stroke-dasharray:0,3.75;stroke-linecap:round;stroke-linejoin:round;stroke-width:0.75}
		.st9 {stroke:#000000;stroke-dasharray:0,2.25;stroke-linecap:round;stroke-linejoin:round;stroke-width:0.75}
		.st10 {fill:#a5a5a5;stroke:#000000;stroke-linecap:round;stroke-linejoin:round;stroke-width:0.75}
		.st11 {fill:#d99690;stroke:#000000;stroke-linecap:round;stroke-linejoin:round;stroke-width:0.75}
		.st12 {fill:#ffffff;stroke:none;stroke-linecap:butt;stroke-width:7.2}
		.st13 {fill:#000000;font-family:Calibri;font-size:1.00001em}
		.st14 {fill:#c4d6a0;stroke:#000000;stroke-linecap:round;stroke-linejoin:round;stroke-width:0.75}
		.st15 {fill:#92cddc;stroke:#000000;stroke-linecap:round;stroke-linejoin:round;stroke-width:0.75}
		.st16 {fill:none;fill-rule:evenodd;font-size:12px;overflow:visible;stroke-linecap:square;stroke-miterlimit:3}
	]]>
	</style>

	<g v:mID="0" v:index="1" v:groupContext="foregroundPage">
		<title>Page-1</title>
		<v:pageProperties v:drawingScale="0.0393701" v:pageScale="0.0393701" v:drawingUnits="24" v:shadowOffsetX="8.50394"
				v:shadowOffsetY="-8.50394"/>
		<g id="shape389-1" v:mID="389" v:groupContext="shape" transform="translate(0.75,-0.75)">
			<title>Sheet.389</title>
			<rect x="0" y="1.5" width="742.677" height="368.504" class="st1"/>
		</g>
		<g id="shape227-3" v:mID="227" v:groupContext="shape" transform="translate(1056.74,91.4587) rotate(90)">
			<title>Sheet.227</title>
			<path d="M0 370 L243.78 370" class="st2"/>
		</g>
		<g id="shape222-6" v:mID="222" v:groupContext="shape" transform="translate(641.38,-34.7657)">
			<title>Sheet.222</title>
			<path d="M0 126.22 L0 290.63 L45.35 301.97 L45.35 324.65 L0 335.99 L0 370" class="st3"/>
		</g>
		<g id="shape216-9" v:mID="216" v:groupContext="shape" transform="translate(966.03,91.4587) rotate(90)">
			<title>Sheet.216</title>
			<path d="M0 370 L243.78 370" class="st4"/>
		</g>
		<g id="shape218-12" v:mID="218" v:groupContext="shape" transform="translate(920.675,91.4587) rotate(90)">
			<title>Sheet.218</title>
			<path d="M0 370 L243.78 370" class="st2"/>
		</g>
		<g id="shape220-15" v:mID="220" v:groupContext="shape" transform="translate(829.967,91.4587) rotate(90)">
			<title>Sheet.220</title>
			<path d="M0 370 L243.78 370" class="st3"/>
		</g>
		<g id="shape213-18" v:mID="213" v:groupContext="shape" transform="translate(323.9,-34.7657)">
			<title>Sheet.213</title>
			<path d="M0 126.22 L0 290.63 L45.35 301.97 L45.35 324.65 L0 335.99 L0 370" class="st2"/>
		</g>
		<g id="shape211-21" v:mID="211" v:groupContext="shape" transform="translate(187.837,-34.7657)">
			<title>Sheet.211</title>
			<path d="M0 126.22 L0 290.63 L45.35 301.97 L45.35 324.65 L0 335.99 L0 370" class="st3"/>
		</g>
		<g id="shape215-24" v:mID="215" v:groupContext="shape" transform="translate(369.254,-34.7657)">
			<title>Sheet.215</title>
			<path d="M0 126.22 L0 290.63 L45.35 301.97 L45.35 324.65 L0 335.99 L0 370" class="st4"/>
		</g>
		<g id="shape1-27" v:mID="1" v:groupContext="shape" transform="translate(119.805,-284.215)">
			<title>Sheet.1</title>
			<path d="M0 370 L22.68 370 L22.68 347.33 L45.35 347.33 L45.35 370" class="st5"/>
		</g>
		<g id="shape2-30" v:mID="2" v:groupContext="shape" transform="translate(165.159,-284.215)">
			<title>Sheet.2</title>
			<path d="M0 370 L22.68 370 L22.68 347.33 L45.35 347.33 L45.35 370" class="st5"/>
		</g>
		<g id="shape3-33" v:mID="3" v:groupContext="shape" transform="translate(210.514,-284.215)">
			<title>Sheet.3</title>
			<path d="M0 370 L22.68 370 L22.68 347.33 L45.35 347.33 L45.35 370" class="st5"/>
		</g>
		<g id="shape4-36" v:mID="4" v:groupContext="shape" transform="translate(255.868,-284.215)">
			<title>Sheet.4</title>
			<path d="M0 370 L22.68 370 L22.68 347.33 L45.35 347.33 L45.35 370" class="st5"/>
		</g>
		<g id="shape5-39" v:mID="5" v:groupContext="shape" transform="translate(301.222,-284.215)">
			<title>Sheet.5</title>
			<path d="M0 370 L22.68 370 L22.68 347.33 L45.35 347.33 L45.35 370" class="st5"/>
		</g>
		<g id="shape7-42" v:mID="7" v:groupContext="shape" transform="translate(68.7815,-255.868)">
			<title>Sheet.7</title>
			<desc>read</desc>
			<v:textBlock v:margins="rect(4,4,4,4)" v:tabSpace="42.5197"/>
			<v:textRect cx="25.5118" cy="364.335" width="51.03" height="11.3386"/>
			<rect x="0" y="358.665" width="51.0236" height="11.3386" class="st6"/>
			<text x="8.86" y="369.73" class="st7" v:langID="2057"><v:paragraph v:horizAlign="1"/><v:tabList/>read</text>		</g>
		<g id="shape10-45" v:mID="10" v:groupContext="shape" transform="translate(44.9705,-85.7894)">
			<title>Sheet.10</title>
			<desc>readdata</desc>
			<v:textBlock v:margins="rect(4,4,4,4)" v:tabSpace="42.5197"/>
			<v:textRect cx="37.4173" cy="364.335" width="74.84" height="11.3386"/>
			<rect x="0" y="358.665" width="74.8346" height="11.3386" class="st6"/>
			<text x="4.4" y="369.73" class="st7" v:langID="2057"><v:paragraph v:horizAlign="1"/><v:tabList/>readdata</text>		</g>
		<g id="shape11-48" v:mID="11" v:groupContext="shape" transform="translate(512.486,46.1043) rotate(90)">
			<title>Sheet.11</title>
			<path d="M0 370 L294.8 370" class="st8"/>
		</g>
		<g id="shape12-51" v:mID="12" v:groupContext="shape" transform="translate(557.841,46.1043) rotate(90)">
			<title>Sheet.12</title>
			<path d="M0 370 L294.8 370" class="st8"/>
		</g>
		<g id="shape13-54" v:mID="13" v:groupContext="shape" transform="translate(603.195,46.1043) rotate(90)">
			<title>Sheet.13</title>
			<path d="M0 370 L294.8 370" class="st8"/>
		</g>
		<g id="shape14-57" v:mID="14" v:groupContext="shape" transform="translate(648.549,46.1043) rotate(90)">
			<title>Sheet.14</title>
			<path d="M0 370 L294.8 370" class="st8"/>
		</g>
		<g id="shape17-60" v:mID="17" v:groupContext="shape" transform="translate(68.7815,-221.852)">
			<title>Sheet.17</title>
			<desc>write</desc>
			<v:textBlock v:margins="rect(4,4,4,4)" v:tabSpace="42.5197"/>
			<v:textRect cx="25.5118" cy="364.335" width="51.03" height="11.3386"/>
			<rect x="0" y="358.665" width="51.0236" height="11.3386" class="st6"/>
			<text x="6.38" y="369.73" class="st7" v:langID="2057"><v:paragraph v:horizAlign="1"/><v:tabList/>write</text>		</g>
		<g id="shape18-63" v:mID="18" v:groupContext="shape" transform="translate(119.805,-216.183)">
			<title>Sheet.18</title>
			<path d="M0 370 L300.47 370" class="st5"/>
		</g>
		<g id="shape19-66" v:mID="19" v:groupContext="shape" transform="translate(119.805,-261.537)">
			<title>Sheet.19</title>
			<path d="M0 370 L595.28 370" class="st9"/>
		</g>
		<g id="shape20-69" v:mID="20" v:groupContext="shape" transform="translate(119.805,-227.522)">
			<title>Sheet.20</title>
			<path d="M0 370 L595.28 370" class="st9"/>
		</g>
		<g id="shape21-72" v:mID="21" v:groupContext="shape" transform="translate(119.805,-91.4587)">
			<title>Sheet.21</title>
			<path d="M0 370 L164.41 370" class="st9"/>
		</g>
		<g id="shape23-75" v:mID="23" v:groupContext="shape" transform="translate(68.7815,-187.837)">
			<title>Sheet.23</title>
			<desc>addr</desc>
			<v:textBlock v:margins="rect(4,4,4,4)" v:tabSpace="42.5197"/>
			<v:textRect cx="25.5118" cy="364.335" width="51.03" height="11.3386"/>
			<rect x="0" y="358.665" width="51.0236" height="11.3386" class="st6"/>
			<text x="8.61" y="369.73" class="st7" v:langID="2057"><v:paragraph v:horizAlign="1"/><v:tabList/>addr</text>		</g>
		<g id="shape25-78" v:mID="25" v:groupContext="shape" transform="translate(119.805,-193.506)">
			<title>Sheet.25</title>
			<path d="M0 370 L164.41 370" class="st9"/>
		</g>
		<g id="shape29-81" v:mID="29" v:groupContext="shape" transform="translate(36.4665,-119.805)">
			<title>Sheet.29</title>
			<desc>writedata</desc>
			<v:textBlock v:margins="rect(4,4,4,4)" v:tabSpace="42.5197"/>
			<v:textRect cx="41.6693" cy="364.335" width="83.34" height="11.3386"/>
			<rect x="0" y="358.665" width="83.3386" height="11.3386" class="st6"/>
			<text x="6.17" y="369.73" class="st7" v:langID="2057"><v:paragraph v:horizAlign="1"/><v:tabList/>writedata</text>		</g>
		<g id="shape30-84" v:mID="30" v:groupContext="shape" transform="translate(119.805,-125.474)">
			<title>Sheet.30</title>
			<path d="M0 370 L306.14 370" class="st9"/>
		</g>
		<g id="shape33-87" v:mID="33" v:groupContext="shape" transform="translate(23.4272,-153.821)">
			<title>Sheet.33</title>
			<desc>byteenable</desc>
			<v:textBlock v:margins="rect(4,4,4,4)" v:tabSpace="42.5197"/>
			<v:textRect cx="48.189" cy="364.335" width="96.38" height="11.3386"/>
			<rect x="0" y="358.665" width="96.378" height="11.3386" class="st6"/>
			<text x="7.1" y="369.73" class="st7" v:langID="2057"><v:paragraph v:horizAlign="1"/><v:tabList/>byteenable</text>		</g>
		<g id="shape34-90" v:mID="34" v:groupContext="shape" transform="translate(119.805,-159.49)">
			<title>Sheet.34</title>
			<path d="M0 370 L164.41 370" class="st9"/>
		</g>
		<g id="shape39-93" v:mID="39" v:groupContext="shape" transform="translate(346.577,-284.215)">
			<title>Sheet.39</title>
			<path d="M0 370 L22.68 370 L22.68 347.33 L45.35 347.33 L45.35 370" class="st5"/>
		</g>
		<g id="shape40-96" v:mID="40" v:groupContext="shape" transform="translate(391.931,-284.215)">
			<title>Sheet.40</title>
			<path d="M0 370 L22.68 370 L22.68 347.33 L45.35 347.33 L45.35 370" class="st5"/>
		</g>
		<g id="shape48-99" v:mID="48" v:groupContext="shape" transform="translate(693.904,46.1043) rotate(90)">
			<title>Sheet.48</title>
			<path d="M0 370 L294.8 370" class="st8"/>
		</g>
		<g id="shape49-102" v:mID="49" v:groupContext="shape" transform="translate(739.258,46.1043) rotate(90)">
			<title>Sheet.49</title>
			<path d="M0 370 L294.8 370" class="st8"/>
		</g>
		<g id="shape50-105" v:mID="50" v:groupContext="shape" transform="translate(784.612,46.1043) rotate(90)">
			<title>Sheet.50</title>
			<path d="M0 370 L294.8 370" class="st8"/>
		</g>
		<g id="shape6-108" v:mID="6" v:groupContext="shape" transform="translate(119.805,-250.199)">
			<title>Sheet.6</title>
			<path d="M0 370 L28.35 370" class="st5"/>
		</g>
		<g id="shape8-111" v:mID="8" v:groupContext="shape" transform="translate(148.152,-250.199)">
			<title>Sheet.8</title>
			<path d="M0 370 L5.67 347.33 L45.35 347.33" class="st5"/>
		</g>
		<g id="shape38-114" v:mID="38" v:groupContext="shape" transform="translate(193.506,-250.199)">
			<title>Sheet.38</title>
			<path d="M0 347.33 L5.67 370 L45.35 370" class="st5"/>
		</g>
		<g id="shape64-117" v:mID="64" v:groupContext="shape" transform="translate(238.86,-250.199)">
			<title>Sheet.64</title>
			<path d="M0 370 L45.35 370" class="st5"/>
		</g>
		<g id="shape66-120" v:mID="66" v:groupContext="shape" transform="translate(284.215,-250.199)">
			<title>Sheet.66</title>
			<path d="M0 370 L5.67 347.33 L45.35 347.33" class="st5"/>
		</g>
		<g id="shape67-123" v:mID="67" v:groupContext="shape" transform="translate(329.569,-272.876)">
			<title>Sheet.67</title>
			<path d="M0 370 L45.35 370" class="st5"/>
		</g>
		<g id="shape68-126" v:mID="68" v:groupContext="shape" transform="translate(374.923,-250.199)">
			<title>Sheet.68</title>
			<path d="M0 347.33 L5.67 370 L45.35 370" class="st5"/>
		</g>
		<g id="shape22-129" v:mID="22" v:groupContext="shape" transform="translate(119.805,-182.167)">
			<title>Sheet.22</title>
			<path d="M0 347.33 L0 370 L28.35 370 L31.18 358.67 L28.35 347.33 L0 347.33 Z" class="st10"/>
		</g>
		<g id="shape32-131" v:mID="32" v:groupContext="shape" transform="translate(119.805,-148.152)">
			<title>Sheet.32</title>
			<path d="M0 347.33 L0 370 L28.35 370 L31.18 358.67 L28.35 347.33 L0 347.33 Z" class="st10"/>
		</g>
		<g id="shape55-133" v:mID="55" v:groupContext="shape" transform="translate(437.285,-284.215)">
			<title>Sheet.55</title>
			<path d="M0 370 L22.68 370 L22.68 347.33 L45.35 347.33 L45.35 370" class="st5"/>
		</g>
		<g id="shape56-136" v:mID="56" v:groupContext="shape" transform="translate(482.64,-284.215)">
			<title>Sheet.56</title>
			<path d="M0 370 L22.68 370 L22.68 347.33 L45.35 347.33 L45.35 370" class="st5"/>
		</g>
		<g id="shape57-139" v:mID="57" v:groupContext="shape" transform="translate(527.994,-284.215)">
			<title>Sheet.57</title>
			<path d="M0 370 L22.68 370 L22.68 347.33 L45.35 347.33 L45.35 370" class="st5"/>
		</g>
		<g id="shape58-142" v:mID="58" v:groupContext="shape" transform="translate(664.057,-284.215)">
			<title>Sheet.58</title>
			<path d="M0 370 L22.68 370 L22.68 347.33 L45.35 347.33 L45.35 370" class="st5"/>
		</g>
		<g id="shape24-145" v:mID="24" v:groupContext="shape" transform="translate(150.986,-182.167)">
			<title>Sheet.24</title>
			<desc>addr</desc>
			<v:textBlock v:margins="rect(4,4,4,4)" v:tabSpace="42.5197"/>
			<v:textRect cx="22.6772" cy="358.665" width="45.36" height="22.6772"/>
			<path d="M42.52 347.33 L2.83 347.33 L0 358.67 L2.83 370 L42.52 370 L45.35 358.67 L42.52 347.33 Z" class="st11"/>
			<rect v:rectContext="textBkgnd" x="11.4066" y="351.465" width="22.5412" height="14.4001" class="st12"/>
			<text x="11.41" y="362.27" class="st13" v:langID="2057"><v:paragraph v:horizAlign="1"/><v:tabList/>addr</text>		</g>
		<g id="shape35-149" v:mID="35" v:groupContext="shape" transform="translate(150.986,-148.152)">
			<title>Sheet.35</title>
			<desc>byten</desc>
			<v:textBlock v:margins="rect(4,4,4,4)" v:tabSpace="42.5197"/>
			<v:textRect cx="22.6772" cy="358.665" width="45.36" height="22.6772"/>
			<path d="M42.52 347.33 L2.83 347.33 L0 358.67 L2.83 370 L42.52 370 L45.35 358.67 L42.52 347.33 Z" class="st11"/>
			<rect v:rectContext="textBkgnd" x="8.66135" y="351.465" width="28.0316" height="14.4001" class="st12"/>
			<text x="8.66" y="362.27" class="st13" v:langID="2057"><v:paragraph v:horizAlign="1"/><v:tabList/>byten</text>		</g>
		<g id="shape36-153" v:mID="36" v:groupContext="shape" transform="translate(196.341,-182.167)">
			<title>Sheet.36</title>
			<path d="M87.87 347.33 L2.83 347.33 L0 358.67 L2.83 370 L87.87 370 L90.71 358.1 L87.87 347.33 Z" class="st10"/>
		</g>
		<g id="shape37-155" v:mID="37" v:groupContext="shape" transform="translate(196.341,-148.152)">
			<title>Sheet.37</title>
			<path d="M87.87 347.33 L2.83 347.33 L0 358.67 L2.83 370 L87.87 370 L90.71 358.1 L87.87 347.33 Z" class="st10"/>
		</g>
		<g id="shape42-157" v:mID="42" v:groupContext="shape" transform="translate(287.049,-182.167)">
			<title>Sheet.42</title>
			<desc>addr</desc>
			<v:textBlock v:margins="rect(4,4,4,4)" v:tabSpace="42.5197"/>
			<v:textRect cx="22.6772" cy="358.665" width="45.36" height="22.6772"/>
			<path d="M42.52 347.33 L2.83 347.33 L0 358.67 L2.83 370 L42.52 370 L45.35 358.67 L42.52 347.33 Z" class="st14"/>
			<rect v:rectContext="textBkgnd" x="11.4066" y="351.465" width="22.5412" height="14.4001" class="st12"/>
			<text x="11.41" y="362.27" class="st13" v:langID="2057"><v:paragraph v:horizAlign="1"/><v:tabList/>addr</text>		</g>
		<g id="shape44-161" v:mID="44" v:groupContext="shape" transform="translate(332.404,-182.167)">
			<title>Sheet.44</title>
			<desc>addr</desc>
			<v:textBlock v:margins="rect(4,4,4,4)" v:tabSpace="42.5197"/>
			<v:textRect cx="22.6772" cy="358.665" width="45.36" height="22.6772"/>
			<path d="M42.52 347.33 L2.83 347.33 L0 358.67 L2.83 370 L42.52 370 L45.35 358.67 L42.52 347.33 Z" class="st15"/>
			<rect v:rectContext="textBkgnd" x="11.4066" y="351.465" width="22.5412" height="14.4001" class="st12"/>
			<text x="11.41" y="362.27" class="st13" v:langID="2057"><v:paragraph v:horizAlign="1"/><v:tabList/>addr</text>		</g>
		<g id="shape45-165" v:mID="45" v:groupContext="shape" transform="translate(287.049,-148.152)">
			<title>Sheet.45</title>
			<desc>byten</desc>
			<v:textBlock v:margins="rect(4,4,4,4)" v:tabSpace="42.5197"/>
			<v:textRect cx="22.6772" cy="358.665" width="45.36" height="22.6772"/>
			<path d="M42.52 347.33 L2.83 347.33 L0 358.67 L2.83 370 L42.52 370 L45.35 358.67 L42.52 347.33 Z" class="st14"/>
			<rect v:rectContext="textBkgnd" x="8.66135" y="351.465" width="28.0316" height="14.4001" class="st12"/>
			<text x="8.66" y="362.27" class="st13" v:langID="2057"><v:paragraph v:horizAlign="1"/><v:tabList/>byten</text>		</g>
		<g id="shape46-169" v:mID="46" v:groupContext="shape" transform="translate(332.404,-148.152)">
			<title>Sheet.46</title>
			<desc>byten</desc>
			<v:textBlock v:margins="rect(4,4,4,4)" v:tabSpace="42.5197"/>
			<v:textRect cx="22.6772" cy="358.665" width="45.36" height="22.6772"/>
			<path d="M42.52 347.33 L2.83 347.33 L0 358.67 L2.83 370 L42.52 370 L45.35 358.67 L42.52 347.33 Z" class="st15"/>
			<rect v:rectContext="textBkgnd" x="8.66135" y="351.465" width="28.0316" height="14.4001" class="st12"/>
			<text x="8.66" y="362.27" class="st13" v:langID="2057"><v:paragraph v:horizAlign="1"/><v:tabList/>byten</text>		</g>
		<g id="shape9-173" v:mID="9" v:groupContext="shape" transform="translate(196.341,-80.1201)">
			<title>Sheet.9</title>
			<desc>data</desc>
			<v:textBlock v:margins="rect(4,4,4,4)" v:tabSpace="42.5197"/>
			<v:textRect cx="22.6772" cy="358.665" width="45.36" height="22.6772"/>
			<path d="M42.52 347.33 L2.83 347.33 L0 358.67 L2.83 370 L42.52 370 L45.35 358.67 L42.52 347.33 Z" class="st11"/>
			<rect v:rectContext="textBkgnd" x="11.7669" y="351.465" width="21.8205" height="14.4001" class="st12"/>
			<text x="11.77" y="362.27" class="st13" v:langID="2057"><v:paragraph v:horizAlign="1"/><v:tabList/>data</text>		</g>
		<g id="shape15-177" v:mID="15" v:groupContext="shape" transform="translate(241.695,-80.1201)">
			<title>Sheet.15</title>
			<path d="M87.87 347.33 L2.83 347.33 L0 358.67 L2.83 370 L87.87 370 L90.71 358.1 L87.87 347.33 Z" class="st10"/>
		</g>
		<g id="shape16-179" v:mID="16" v:groupContext="shape" transform="translate(332.404,-80.1201)">
			<title>Sheet.16</title>
			<desc>data</desc>
			<v:textBlock v:margins="rect(4,4,4,4)" v:tabSpace="42.5197"/>
			<v:textRect cx="22.6772" cy="358.665" width="45.36" height="22.6772"/>
			<path d="M42.52 347.33 L2.83 347.33 L0 358.67 L2.83 370 L42.52 370 L45.35 358.67 L42.52 347.33 Z" class="st14"/>
			<rect v:rectContext="textBkgnd" x="11.7669" y="351.465" width="21.8205" height="14.4001" class="st12"/>
			<text x="11.77" y="362.27" class="st13" v:langID="2057"><v:paragraph v:horizAlign="1"/><v:tabList/>data</text>		</g>
		<g id="shape47-183" v:mID="47" v:groupContext="shape" transform="translate(377.758,-80.1201)">
			<title>Sheet.47</title>
			<desc>data</desc>
			<v:textBlock v:margins="rect(4,4,4,4)" v:tabSpace="42.5197"/>
			<v:textRect cx="22.6772" cy="358.665" width="45.36" height="22.6772"/>
			<path d="M42.52 347.33 L2.83 347.33 L0 358.67 L2.83 370 L42.52 370 L45.35 358.67 L42.52 347.33 Z" class="st15"/>
			<rect v:rectContext="textBkgnd" x="11.7669" y="351.465" width="21.8205" height="14.4001" class="st12"/>
			<text x="11.77" y="362.27" class="st13" v:langID="2057"><v:paragraph v:horizAlign="1"/><v:tabList/>data</text>		</g>
		<g id="shape51-187" v:mID="51" v:groupContext="shape" transform="translate(420.278,-216.183)">
			<title>Sheet.51</title>
			<path d="M0 370 L5.67 347.33 L45.35 347.33" class="st5"/>
		</g>
		<g id="shape52-190" v:mID="52" v:groupContext="shape" transform="translate(465.632,-216.183)">
			<title>Sheet.52</title>
			<path d="M0 347.33 L5.67 370 L45.35 370" class="st5"/>
		</g>
		<g id="shape53-193" v:mID="53" v:groupContext="shape" transform="translate(510.986,-216.183)">
			<title>Sheet.53</title>
			<path d="M0 370 L5.67 347.33 L45.35 347.33" class="st5"/>
		</g>
		<g id="shape54-196" v:mID="54" v:groupContext="shape" transform="translate(556.341,-238.86)">
			<title>Sheet.54</title>
			<path d="M0 370 L45.35 370" class="st5"/>
		</g>
		<g id="shape28-199" v:mID="28" v:groupContext="shape" transform="translate(119.805,-114.136)">
			<title>Sheet.28</title>
			<path d="M300.47 347.33 L0 347.33 L0 358.67 L0 370 L300.47 370 L303.31 358.1 L300.47 347.33 Z" class="st10"/>
		</g>
		<g id="shape31-201" v:mID="31" v:groupContext="shape" transform="translate(423.112,-114.136)">
			<title>Sheet.31</title>
			<desc>data</desc>
			<v:textBlock v:margins="rect(4,4,4,4)" v:tabSpace="42.5197"/>
			<v:textRect cx="22.6772" cy="358.665" width="45.36" height="22.6772"/>
			<path d="M42.52 347.33 L2.83 347.33 L0 358.67 L2.83 370 L42.52 370 L45.35 358.67 L42.52 347.33 Z" class="st11"/>
			<rect v:rectContext="textBkgnd" x="11.7669" y="351.465" width="21.8205" height="14.4001" class="st12"/>
			<text x="11.77" y="362.27" class="st13" v:langID="2057"><v:paragraph v:horizAlign="1"/><v:tabList/>data</text>		</g>
		<g id="shape60-205" v:mID="60" v:groupContext="shape" transform="translate(468.467,-114.136)">
			<title>Sheet.60</title>
			<path d="M43.09 347.33 L3.4 347.33 L0 358.67 L3.4 370 L43.09 370 L45.92 358.67 L43.09 347.33 Z" class="st10"/>
		</g>
		<g id="shape69-207" v:mID="69" v:groupContext="shape" transform="translate(513.821,-114.136)">
			<title>Sheet.69</title>
			<desc>data</desc>
			<v:textBlock v:margins="rect(4,4,4,4)" v:tabSpace="42.5197"/>
			<v:textRect cx="22.6772" cy="358.665" width="45.36" height="22.6772"/>
			<path d="M42.52 347.33 L2.83 347.33 L0 358.67 L2.83 370 L42.52 370 L45.35 358.67 L42.52 347.33 Z" class="st14"/>
			<rect v:rectContext="textBkgnd" x="11.7669" y="351.465" width="21.8205" height="14.4001" class="st12"/>
			<text x="11.77" y="362.27" class="st13" v:langID="2057"><v:paragraph v:horizAlign="1"/><v:tabList/>data</text>		</g>
		<g id="shape70-211" v:mID="70" v:groupContext="shape" transform="translate(559.175,-114.136)">
			<title>Sheet.70</title>
			<desc>data</desc>
			<v:textBlock v:margins="rect(4,4,4,4)" v:tabSpace="42.5197"/>
			<v:textRect cx="22.6772" cy="358.665" width="45.36" height="22.6772"/>
			<path d="M42.52 347.33 L2.83 347.33 L0 358.67 L2.83 370 L42.52 370 L45.35 358.67 L42.52 347.33 Z" class="st15"/>
			<rect v:rectContext="textBkgnd" x="11.7669" y="351.465" width="21.8205" height="14.4001" class="st12"/>
			<text x="11.77" y="362.27" class="st13" v:langID="2057"><v:paragraph v:horizAlign="1"/><v:tabList/>data</text>		</g>
		<g id="shape72-215" v:mID="72" v:groupContext="shape" transform="translate(423.112,-80.1201)">
			<title>Sheet.72</title>
			<path d="M223.94 347.33 L2.83 347.33 L0 358.67 L2.83 370 L223.94 370 L226.77 358.67 L223.94 347.33 Z" class="st10"/>
		</g>
		<g id="shape73-217" v:mID="73" v:groupContext="shape" transform="translate(119.805,-80.1201)">
			<title>Sheet.73</title>
			<path d="M73.7 347.33 L0 347.33 L0 358.67 L0 370 L73.7 370 L76.54 358.1 L73.7 347.33 Z" class="st10"/>
		</g>
		<g id="shape76-219" v:mID="76" v:groupContext="shape" transform="translate(377.758,-182.167)">
			<title>Sheet.76</title>
			<path d="M43.09 347.33 L3.4 347.33 L0 358.67 L3.4 370 L43.09 370 L45.92 358.67 L43.09 347.33 Z" class="st10"/>
		</g>
		<g id="shape77-221" v:mID="77" v:groupContext="shape" transform="translate(377.758,-148.152)">
			<title>Sheet.77</title>
			<path d="M43.09 347.33 L3.4 347.33 L0 358.67 L3.4 370 L43.09 370 L45.92 358.67 L43.09 347.33 Z" class="st10"/>
		</g>
		<g id="shape78-223" v:mID="78" v:groupContext="shape" transform="translate(423.112,-182.167)">
			<title>Sheet.78</title>
			<desc>addr</desc>
			<v:textBlock v:margins="rect(4,4,4,4)" v:tabSpace="42.5197"/>
			<v:textRect cx="22.6772" cy="358.665" width="45.36" height="22.6772"/>
			<path d="M42.52 347.33 L2.83 347.33 L0 358.67 L2.83 370 L42.52 370 L45.35 358.67 L42.52 347.33 Z" class="st11"/>
			<rect v:rectContext="textBkgnd" x="11.4066" y="351.465" width="22.5412" height="14.4001" class="st12"/>
			<text x="11.41" y="362.27" class="st13" v:langID="2057"><v:paragraph v:horizAlign="1"/><v:tabList/>addr</text>		</g>
		<g id="shape79-227" v:mID="79" v:groupContext="shape" transform="translate(468.183,-182.167)">
			<title>Sheet.79</title>
			<path d="M43.09 347.33 L3.4 347.33 L0 358.67 L3.4 370 L43.09 370 L45.92 358.67 L43.09 347.33 Z" class="st10"/>
		</g>
		<g id="shape80-229" v:mID="80" v:groupContext="shape" transform="translate(513.821,-182.167)">
			<title>Sheet.80</title>
			<desc>addr</desc>
			<v:textBlock v:margins="rect(4,4,4,4)" v:tabSpace="42.5197"/>
			<v:textRect cx="22.6772" cy="358.665" width="45.36" height="22.6772"/>
			<path d="M42.52 347.33 L2.83 347.33 L0 358.67 L2.83 370 L42.52 370 L45.35 358.67 L42.52 347.33 Z" class="st14"/>
			<rect v:rectContext="textBkgnd" x="11.4066" y="351.465" width="22.5412" height="14.4001" class="st12"/>
			<text x="11.41" y="362.27" class="st13" v:langID="2057"><v:paragraph v:horizAlign="1"/><v:tabList/>addr</text>		</g>
		<g id="shape81-233" v:mID="81" v:groupContext="shape" transform="translate(559.175,-182.167)">
			<title>Sheet.81</title>
			<desc>addr</desc>
			<v:textBlock v:margins="rect(4,4,4,4)" v:tabSpace="42.5197"/>
			<v:textRect cx="22.6772" cy="358.665" width="45.36" height="22.6772"/>
			<path d="M42.52 347.33 L2.83 347.33 L0 358.67 L2.83 370 L42.52 370 L45.35 358.67 L42.52 347.33 Z" class="st15"/>
			<rect v:rectContext="textBkgnd" x="11.4066" y="351.465" width="22.5412" height="14.4001" class="st12"/>
			<text x="11.41" y="362.27" class="st13" v:langID="2057"><v:paragraph v:horizAlign="1"/><v:tabList/>addr</text>		</g>
		<g id="shape83-237" v:mID="83" v:groupContext="shape" transform="translate(420.278,-250.199)">
			<title>Sheet.83</title>
			<path d="M0 370 L181.42 370" class="st5"/>
		</g>
		<g id="shape84-240" v:mID="84" v:groupContext="shape" transform="translate(423.112,-148.152)">
			<title>Sheet.84</title>
			<desc>byten</desc>
			<v:textBlock v:margins="rect(4,4,4,4)" v:tabSpace="42.5197"/>
			<v:textRect cx="22.6772" cy="358.665" width="45.36" height="22.6772"/>
			<path d="M42.52 347.33 L2.83 347.33 L0 358.67 L2.83 370 L42.52 370 L45.35 358.67 L42.52 347.33 Z" class="st11"/>
			<rect v:rectContext="textBkgnd" x="8.66135" y="351.465" width="28.0316" height="14.4001" class="st12"/>
			<text x="8.66" y="362.27" class="st13" v:langID="2057"><v:paragraph v:horizAlign="1"/><v:tabList/>byten</text>		</g>
		<g id="shape85-244" v:mID="85" v:groupContext="shape" transform="translate(468.467,-148.152)">
			<title>Sheet.85</title>
			<path d="M43.09 347.33 L3.4 347.33 L0 358.67 L3.4 370 L43.09 370 L45.92 358.67 L43.09 347.33 Z" class="st10"/>
		</g>
		<g id="shape86-246" v:mID="86" v:groupContext="shape" transform="translate(513.821,-148.152)">
			<title>Sheet.86</title>
			<desc>byten</desc>
			<v:textBlock v:margins="rect(4,4,4,4)" v:tabSpace="42.5197"/>
			<v:textRect cx="22.6772" cy="358.665" width="45.36" height="22.6772"/>
			<path d="M42.52 347.33 L2.83 347.33 L0 358.67 L2.83 370 L42.52 370 L45.35 358.67 L42.52 347.33 Z" class="st14"/>
			<rect v:rectContext="textBkgnd" x="8.66135" y="351.465" width="28.0316" height="14.4001" class="st12"/>
			<text x="8.66" y="362.27" class="st13" v:langID="2057"><v:paragraph v:horizAlign="1"/><v:tabList/>byten</text>		</g>
		<g id="shape87-250" v:mID="87" v:groupContext="shape" transform="translate(559.175,-148.152)">
			<title>Sheet.87</title>
			<desc>byten</desc>
			<v:textBlock v:margins="rect(4,4,4,4)" v:tabSpace="42.5197"/>
			<v:textRect cx="22.6772" cy="358.665" width="45.36" height="22.6772"/>
			<path d="M42.52 347.33 L2.83 347.33 L0 358.67 L2.83 370 L42.52 370 L45.35 358.67 L42.52 347.33 Z" class="st15"/>
			<rect v:rectContext="textBkgnd" x="8.66135" y="351.465" width="28.0316" height="14.4001" class="st12"/>
			<text x="8.66" y="362.27" class="st13" v:langID="2057"><v:paragraph v:horizAlign="1"/><v:tabList/>byten</text>		</g>
		<g id="shape90-254" v:mID="90" v:groupContext="shape" transform="translate(695.238,-80.1201)">
			<title>Sheet.90</title>
			<path d="M19.84 347.33 L2.83 347.33 L0 358.67 L2.83 370 L19.84 370 L19.84 347.33 Z" class="st10"/>
		</g>
		<g id="shape91-256" v:mID="91" v:groupContext="shape" transform="translate(119.805,-57.4429)">
			<title>Sheet.91</title>
			<path d="M0 370 L595.28 370" class="st9"/>
		</g>
		<g id="shape92-259" v:mID="92" v:groupContext="shape" transform="translate(9.25394,-51.7736)">
			<title>Sheet.92</title>
			<desc>waitrequest</desc>
			<v:textBlock v:margins="rect(4,4,4,4)" v:tabSpace="42.5197"/>
			<v:textRect cx="54.1417" cy="364.335" width="108.29" height="11.3386"/>
			<rect x="0" y="358.665" width="108.283" height="11.3386" class="st6"/>
			<text x="10.23" y="369.73" class="st7" v:langID="2057"><v:paragraph v:horizAlign="1"/><v:tabList/>waitrequest</text>		</g>
		<g id="shape93-262" v:mID="93" v:groupContext="shape" transform="translate(119.805,-46.1043)">
			<title>Sheet.93</title>
			<path d="M0 370 L504.57 370" class="st5"/>
		</g>
		<g id="shape94-265" v:mID="94" v:groupContext="shape" transform="translate(715.081,455.793) rotate(180)">
			<title>Sheet.94</title>
			<path d="M0 370 L5.67 370" class="st5"/>
		</g>
		<g id="shape74-268" v:mID="74" v:groupContext="shape" transform="translate(73.0335,-292.719)">
			<title>Sheet.74</title>
			<desc>clk</desc>
			<v:textBlock v:margins="rect(4,4,4,4)" v:tabSpace="42.5197"/>
			<v:textRect cx="25.5118" cy="364.335" width="51.03" height="11.3386"/>
			<rect x="0" y="358.665" width="51.0236" height="11.3386" class="st6"/>
			<text x="15.55" y="369.73" class="st7" v:langID="2057"><v:paragraph v:horizAlign="1"/><v:tabList/>clk</text>		</g>
		<g id="shape75-271" v:mID="75" v:groupContext="shape" transform="translate(604.53,-182.167)">
			<title>Sheet.75</title>
			<desc>addr</desc>
			<v:textBlock v:margins="rect(4,4,4,4)" v:tabSpace="42.5197"/>
			<v:textRect cx="22.6772" cy="358.665" width="45.36" height="22.6772"/>
			<path d="M42.52 347.33 L2.83 347.33 L0 358.67 L2.83 370 L42.52 370 L45.35 358.67 L42.52 347.33 Z" class="st11"/>
			<rect v:rectContext="textBkgnd" x="11.4066" y="351.465" width="22.5412" height="14.4001" class="st12"/>
			<text x="11.41" y="362.27" class="st13" v:langID="2057"><v:paragraph v:horizAlign="1"/><v:tabList/>addr</text>		</g>
		<g id="shape59-275" v:mID="59" v:groupContext="shape" transform="translate(601.695,-216.183)">
			<title>Sheet.59</title>
			<path d="M0 347.33 L5.67 370 L45.35 370" class="st5"/>
		</g>
		<g id="shape82-278" v:mID="82" v:groupContext="shape" transform="translate(601.695,-250.199)">
			<title>Sheet.82</title>
			<path d="M0 370 L5.67 347.33 L45.35 347.33" class="st5"/>
		</g>
		<g id="shape95-281" v:mID="95" v:groupContext="shape" transform="translate(604.53,-148.152)">
			<title>Sheet.95</title>
			<desc>byten</desc>
			<v:textBlock v:margins="rect(4,4,4,4)" v:tabSpace="42.5197"/>
			<v:textRect cx="22.6772" cy="358.665" width="45.36" height="22.6772"/>
			<path d="M42.52 347.33 L2.83 347.33 L0 358.67 L2.83 370 L42.52 370 L45.35 358.67 L42.52 347.33 Z" class="st11"/>
			<rect v:rectContext="textBkgnd" x="8.66135" y="351.465" width="28.0316" height="14.4001" class="st12"/>
			<text x="8.66" y="362.27" class="st13" v:langID="2057"><v:paragraph v:horizAlign="1"/><v:tabList/>byten</text>		</g>
		<g id="shape88-285" v:mID="88" v:groupContext="shape" transform="translate(649.884,-80.1201)">
			<title>Sheet.88</title>
			<desc>data</desc>
			<v:textBlock v:margins="rect(4,4,4,4)" v:tabSpace="42.5197"/>
			<v:textRect cx="22.6772" cy="358.665" width="45.36" height="22.6772"/>
			<path d="M42.52 347.33 L2.83 347.33 L0 358.67 L2.83 370 L42.52 370 L45.35 358.67 L42.52 347.33 Z" class="st11"/>
			<rect v:rectContext="textBkgnd" x="11.7669" y="351.465" width="21.8205" height="14.4001" class="st12"/>
			<text x="11.77" y="362.27" class="st13" v:langID="2057"><v:paragraph v:horizAlign="1"/><v:tabList/>data</text>		</g>
		<g id="shape97-289" v:mID="97" v:groupContext="shape" transform="translate(573.348,-284.215)">
			<title>Sheet.97</title>
			<path d="M0 370 L22.68 370 L22.68 347.33 L45.35 347.33 L45.35 370" class="st5"/>
		</g>
		<g id="shape98-292" v:mID="98" v:groupContext="shape" transform="translate(647.049,-250.199)">
			<title>Sheet.98</title>
			<path d="M0 347.33 L5.67 370 L45.35 370" class="st5"/>
		</g>
		<g id="shape100-295" v:mID="100" v:groupContext="shape" transform="translate(692.404,-250.199)">
			<title>Sheet.100</title>
			<path d="M0 370 L22.68 370" class="st5"/>
		</g>
		<g id="shape101-298" v:mID="101" v:groupContext="shape" transform="translate(624.372,-46.1043)">
			<title>Sheet.101</title>
			<path d="M0 370 L90.71 370" class="st5"/>
		</g>
		<g id="shape102-301" v:mID="102" v:groupContext="shape" transform="translate(618.703,-284.215)">
			<title>Sheet.102</title>
			<path d="M0 370 L22.68 370 L22.68 347.33 L45.35 347.33 L45.35 370" class="st5"/>
		</g>
		<g id="shape104-304" v:mID="104" v:groupContext="shape" transform="translate(875.321,46.1043) rotate(90)">
			<title>Sheet.104</title>
			<path d="M0 370 L294.8 370" class="st8"/>
		</g>
		<g id="shape107-307" v:mID="107" v:groupContext="shape" transform="translate(1011.38,46.1043) rotate(90)">
			<title>Sheet.107</title>
			<path d="M0 370 L294.8 370" class="st8"/>
		</g>
		<g id="shape108-310" v:mID="108" v:groupContext="shape" transform="translate(1056.74,46.1043) rotate(90)">
			<title>Sheet.108</title>
			<path d="M0 370 L294.8 370" class="st8"/>
		</g>
		<g id="shape217-313" v:mID="217" v:groupContext="shape" transform="translate(966.03,46.1043) rotate(90)">
			<title>Sheet.217</title>
			<path d="M0 370 L294.8 370" class="st8"/>
		</g>
		<g id="shape219-316" v:mID="219" v:groupContext="shape" transform="translate(920.675,46.1043) rotate(90)">
			<title>Sheet.219</title>
			<path d="M0 370 L294.8 370" class="st8"/>
		</g>
		<g id="shape221-319" v:mID="221" v:groupContext="shape" transform="translate(829.967,46.1043) rotate(90)">
			<title>Sheet.221</title>
			<path d="M0 370 L294.8 370" class="st8"/>
		</g>
		<g id="shape71-322" v:mID="71" v:groupContext="shape" transform="translate(649.884,-114.136)">
			<title>Sheet.71</title>
			<desc>data</desc>
			<v:textBlock v:margins="rect(4,4,4,4)" v:tabSpace="42.5197"/>
			<v:textRect cx="22.6772" cy="358.665" width="45.36" height="22.6772"/>
			<path d="M42.52 347.33 L2.83 347.33 L0 358.67 L2.83 370 L42.52 370 L45.35 358.67 L42.52 347.33 Z" class="st14"/>
			<rect v:rectContext="textBkgnd" x="11.7669" y="351.465" width="21.8205" height="14.4001" class="st12"/>
			<text x="11.77" y="362.27" class="st13" v:langID="2057"><v:paragraph v:horizAlign="1"/><v:tabList/>data</text>		</g>
		<g id="shape89-326" v:mID="89" v:groupContext="shape" transform="translate(649.884,-182.167)">
			<title>Sheet.89</title>
			<desc>addr</desc>
			<v:textBlock v:margins="rect(4,4,4,4)" v:tabSpace="42.5197"/>
			<v:textRect cx="22.6772" cy="358.665" width="45.36" height="22.6772"/>
			<path d="M42.52 347.33 L2.83 347.33 L0 358.67 L2.83 370 L42.52 370 L45.35 358.67 L42.52 347.33 Z" class="st14"/>
			<rect v:rectContext="textBkgnd" x="11.4066" y="351.465" width="22.5412" height="14.4001" class="st12"/>
			<text x="11.41" y="362.27" class="st13" v:langID="2057"><v:paragraph v:horizAlign="1"/><v:tabList/>addr</text>		</g>
		<g id="shape96-330" v:mID="96" v:groupContext="shape" transform="translate(649.884,-148.152)">
			<title>Sheet.96</title>
			<desc>byten</desc>
			<v:textBlock v:margins="rect(4,4,4,4)" v:tabSpace="42.5197"/>
			<v:textRect cx="22.6772" cy="358.665" width="45.36" height="22.6772"/>
			<path d="M42.52 347.33 L2.83 347.33 L0 358.67 L2.83 370 L42.52 370 L45.35 358.67 L42.52 347.33 Z" class="st14"/>
			<rect v:rectContext="textBkgnd" x="8.66135" y="351.465" width="28.0316" height="14.4001" class="st12"/>
			<text x="8.66" y="362.27" class="st13" v:langID="2057"><v:paragraph v:horizAlign="1"/><v:tabList/>byten</text>		</g>
		<g id="shape200-334" v:mID="200" v:groupContext="shape" transform="translate(603.963,-114.136)">
			<title>Sheet.200</title>
			<path d="M43.09 347.33 L3.4 347.33 L0 358.67 L3.4 370 L43.09 370 L45.92 358.67 L43.09 347.33 Z" class="st10"/>
		</g>
		<g id="shape223-336" v:mID="223" v:groupContext="shape" transform="translate(695.238,-114.136)">
			<title>Sheet.223</title>
			<path d="M19.84 347.33 L2.83 347.33 L0 358.67 L2.83 370 L19.84 370 L19.84 347.33 Z" class="st10"/>
		</g>
		<g id="shape224-338" v:mID="224" v:groupContext="shape" transform="translate(695.238,-148.152)">
			<title>Sheet.224</title>
			<path d="M19.84 347.33 L2.83 347.33 L0 358.67 L2.83 370 L19.84 370 L19.84 347.33 Z" class="st10"/>
		</g>
		<g id="shape225-340" v:mID="225" v:groupContext="shape" transform="translate(695.238,-182.167)">
			<title>Sheet.225</title>
			<path d="M19.84 347.33 L2.83 347.33 L0 358.67 L2.83 370 L19.84 370 L19.84 347.33 Z" class="st10"/>
		</g>
		<g id="shape99-342" v:mID="99" v:groupContext="shape" transform="translate(647.049,-216.183)">
			<title>Sheet.99</title>
			<path d="M0 370 L5.67 347.33 L45.35 347.33" class="st5"/>
		</g>
		<g id="shape226-345" v:mID="226" v:groupContext="shape" transform="translate(692.404,-216.183)">
			<title>Sheet.226</title>
			<path d="M0 347.33 L5.67 370 L45.35 370" class="st5"/>
		</g>
		<g id="shape342-348" v:mID="342" v:groupContext="shape" transform="translate(119.805,-318.23)">
			<title>Sheet.342</title>
			<desc>1</desc>
			<v:textBlock v:margins="rect(4,4,4,4)" v:tabSpace="42.5197"/>
			<v:textRect cx="22.6772" cy="355.831" width="45.36" height="28.3465"/>
			<rect x="0" y="341.657" width="45.3543" height="28.3465" class="st6"/>
			<text x="18.12" y="361.23" class="st7" v:langID="2057"><v:paragraph v:horizAlign="1"/><v:tabList/>1</text>		</g>
		<g id="shape343-351" v:mID="343" v:groupContext="shape" transform="translate(165.159,-318.23)">
			<title>Sheet.343</title>
			<desc>2</desc>
			<v:textBlock v:margins="rect(4,4,4,4)" v:tabSpace="42.5197"/>
			<v:textRect cx="22.6772" cy="355.831" width="45.36" height="28.3465"/>
			<rect x="0" y="341.657" width="45.3543" height="28.3465" class="st6"/>
			<text x="18.12" y="361.23" class="st7" v:langID="2057"><v:paragraph v:horizAlign="1"/><v:tabList/>2</text>		</g>
		<g id="shape344-354" v:mID="344" v:groupContext="shape" transform="translate(210.514,-318.23)">
			<title>Sheet.344</title>
			<desc>3</desc>
			<v:textBlock v:margins="rect(4,4,4,4)" v:tabSpace="42.5197"/>
			<v:textRect cx="22.6772" cy="355.831" width="45.36" height="28.3465"/>
			<rect x="0" y="341.657" width="45.3543" height="28.3465" class="st6"/>
			<text x="18.12" y="361.23" class="st7" v:langID="2057"><v:paragraph v:horizAlign="1"/><v:tabList/>3</text>		</g>
		<g id="shape345-357" v:mID="345" v:groupContext="shape" transform="translate(255.868,-318.23)">
			<title>Sheet.345</title>
			<desc>4</desc>
			<v:textBlock v:margins="rect(4,4,4,4)" v:tabSpace="42.5197"/>
			<v:textRect cx="22.6772" cy="355.831" width="45.36" height="28.3465"/>
			<rect x="0" y="341.657" width="45.3543" height="28.3465" class="st6"/>
			<text x="18.12" y="361.23" class="st7" v:langID="2057"><v:paragraph v:horizAlign="1"/><v:tabList/>4</text>		</g>
		<g id="shape346-360" v:mID="346" v:groupContext="shape" transform="translate(301.222,-318.23)">
			<title>Sheet.346</title>
			<desc>5</desc>
			<v:textBlock v:margins="rect(4,4,4,4)" v:tabSpace="42.5197"/>
			<v:textRect cx="22.6772" cy="355.831" width="45.36" height="28.3465"/>
			<rect x="0" y="341.657" width="45.3543" height="28.3465" class="st6"/>
			<text x="18.12" y="361.23" class="st7" v:langID="2057"><v:paragraph v:horizAlign="1"/><v:tabList/>5</text>		</g>
		<g id="shape347-363" v:mID="347" v:groupContext="shape" transform="translate(346.577,-318.23)">
			<title>Sheet.347</title>
			<desc>6</desc>
			<v:textBlock v:margins="rect(4,4,4,4)" v:tabSpace="42.5197"/>
			<v:textRect cx="22.6772" cy="355.831" width="45.36" height="28.3465"/>
			<rect x="0" y="341.657" width="45.3543" height="28.3465" class="st6"/>
			<text x="18.12" y="361.23" class="st7" v:langID="2057"><v:paragraph v:horizAlign="1"/><v:tabList/>6</text>		</g>
		<g id="shape348-366" v:mID="348" v:groupContext="shape" transform="translate(391.931,-318.23)">
			<title>Sheet.348</title>
			<desc>7</desc>
			<v:textBlock v:margins="rect(4,4,4,4)" v:tabSpace="42.5197"/>
			<v:textRect cx="22.6772" cy="355.831" width="45.36" height="28.3465"/>
			<rect x="0" y="341.657" width="45.3543" height="28.3465" class="st6"/>
			<text x="18.12" y="361.23" class="st7" v:langID="2057"><v:paragraph v:horizAlign="1"/><v:tabList/>7</text>		</g>
		<g id="shape349-369" v:mID="349" v:groupContext="shape" transform="translate(437.285,-318.23)">
			<title>Sheet.349</title>
			<desc>8</desc>
			<v:textBlock v:margins="rect(4,4,4,4)" v:tabSpace="42.5197"/>
			<v:textRect cx="22.6772" cy="355.831" width="45.36" height="28.3465"/>
			<rect x="0" y="341.657" width="45.3543" height="28.3465" class="st6"/>
			<text x="18.12" y="361.23" class="st7" v:langID="2057"><v:paragraph v:horizAlign="1"/><v:tabList/>8</text>		</g>
		<g id="shape350-372" v:mID="350" v:groupContext="shape" transform="translate(482.64,-318.23)">
			<title>Sheet.350</title>
			<desc>9</desc>
			<v:textBlock v:margins="rect(4,4,4,4)" v:tabSpace="42.5197"/>
			<v:textRect cx="22.6772" cy="355.831" width="45.36" height="28.3465"/>
			<rect x="0" y="341.657" width="45.3543" height="28.3465" class="st6"/>
			<text x="18.12" y="361.23" class="st7" v:langID="2057"><v:paragraph v:horizAlign="1"/><v:tabList/>9</text>		</g>
		<g id="shape351-375" v:mID="351" v:groupContext="shape" transform="translate(527.994,-318.23)">
			<title>Sheet.351</title>
			<desc>10</desc>
			<v:textBlock v:margins="rect(4,4,4,4)" v:tabSpace="42.5197"/>
			<v:textRect cx="22.6772" cy="355.831" width="45.36" height="28.3465"/>
			<rect x="0" y="341.657" width="45.3543" height="28.3465" class="st6"/>
			<text x="13.55" y="361.23" class="st7" v:langID="2057"><v:paragraph v:horizAlign="1"/><v:tabList/>10</text>		</g>
		<g id="shape352-378" v:mID="352" v:groupContext="shape" transform="translate(573.348,-318.23)">
			<title>Sheet.352</title>
			<desc>11</desc>
			<v:textBlock v:margins="rect(4,4,4,4)" v:tabSpace="42.5197"/>
			<v:textRect cx="22.6772" cy="355.831" width="45.36" height="28.3465"/>
			<rect x="0" y="341.657" width="45.3543" height="28.3465" class="st6"/>
			<text x="13.55" y="361.23" class="st7" v:langID="2057"><v:paragraph v:horizAlign="1"/><v:tabList/>11</text>		</g>
		<g id="shape353-381" v:mID="353" v:groupContext="shape" transform="translate(618.703,-318.23)">
			<title>Sheet.353</title>
			<desc>12</desc>
			<v:textBlock v:margins="rect(4,4,4,4)" v:tabSpace="42.5197"/>
			<v:textRect cx="22.6772" cy="355.831" width="45.36" height="28.3465"/>
			<rect x="0" y="341.657" width="45.3543" height="28.3465" class="st6"/>
			<text x="13.55" y="361.23" class="st7" v:langID="2057"><v:paragraph v:horizAlign="1"/><v:tabList/>12</text>		</g>
		<g id="shape354-384" v:mID="354" v:groupContext="shape" transform="translate(664.057,-318.23)">
			<title>Sheet.354</title>
			<desc>13</desc>
			<v:textBlock v:margins="rect(4,4,4,4)" v:tabSpace="42.5197"/>
			<v:textRect cx="22.6772" cy="355.831" width="45.36" height="28.3465"/>
			<rect x="0" y="341.657" width="45.3543" height="28.3465" class="st6"/>
			<text x="13.55" y="361.23" class="st7" v:langID="2057"><v:paragraph v:horizAlign="1"/><v:tabList/>13</text>		</g>
		<g id="shape103-387" v:mID="103" v:groupContext="shape" transform="translate(165.159,-6.41929)">
			<title>Sheet.103</title>
			<desc>Ar</desc>
			<v:textBlock v:margins="rect(4,4,4,4)" v:tabSpace="42.5197"/>
			<v:textRect cx="22.6772" cy="355.831" width="45.36" height="28.3465"/>
			<rect x="0" y="341.657" width="45.3543" height="28.3465" class="st6"/>
			<text x="14.33" y="361.23" class="st7" v:langID="2057"><v:paragraph v:horizAlign="1"/><v:tabList/>Ar</text>		</g>
		<g id="shape105-390" v:mID="105" v:groupContext="shape" transform="translate(301.222,-6.41929)">
			<title>Sheet.105</title>
			<desc>Br</desc>
			<v:textBlock v:margins="rect(4,4,4,4)" v:tabSpace="42.5197"/>
			<v:textRect cx="22.6772" cy="355.831" width="45.36" height="28.3465"/>
			<rect x="0" y="341.657" width="45.3543" height="28.3465" class="st6"/>
			<text x="14.64" y="361.23" class="st7" v:langID="2057"><v:paragraph v:horizAlign="1"/><v:tabList/>Br</text>		</g>
		<g id="shape106-393" v:mID="106" v:groupContext="shape" transform="translate(346.577,-6.41929)">
			<title>Sheet.106</title>
			<desc>Cr</desc>
			<v:textBlock v:margins="rect(4,4,4,4)" v:tabSpace="42.5197"/>
			<v:textRect cx="22.6772" cy="355.831" width="45.36" height="28.3465"/>
			<rect x="0" y="341.657" width="45.3543" height="28.3465" class="st6"/>
			<text x="14.74" y="361.23" class="st7" v:langID="2057"><v:paragraph v:horizAlign="1"/><v:tabList/>Cr</text>		</g>
		<g id="shape214-396" v:mID="214" v:groupContext="shape" transform="translate(437.285,-6.41929)">
			<title>Sheet.214</title>
			<desc>Dw</desc>
			<v:textBlock v:margins="rect(4,4,4,4)" v:tabSpace="42.5197"/>
			<v:textRect cx="22.6772" cy="355.831" width="45.36" height="28.3465"/>
			<rect x="0" y="341.657" width="45.3543" height="28.3465" class="st6"/>
			<text x="10.71" y="361.23" class="st7" v:langID="2057"><v:paragraph v:horizAlign="1"/><v:tabList/>Dw</text>		</g>
		<g id="shape228-399" v:mID="228" v:groupContext="shape" transform="translate(527.994,-6.41929)">
			<title>Sheet.228</title>
			<desc>Ew</desc>
			<v:textBlock v:margins="rect(4,4,4,4)" v:tabSpace="42.5197"/>
			<v:textRect cx="22.6772" cy="355.831" width="45.36" height="28.3465"/>
			<rect x="0" y="341.657" width="45.3543" height="28.3465" class="st6"/>
			<text x="11.85" y="361.23" class="st7" v:langID="2057"><v:paragraph v:horizAlign="1"/><v:tabList/>Ew</text>		</g>
		<g id="shape355-402" v:mID="355" v:groupContext="shape" transform="translate(573.348,-6.41929)">
			<title>Sheet.355</title>
			<desc>Fw</desc>
			<v:textBlock v:margins="rect(4,4,4,4)" v:tabSpace="42.5197"/>
			<v:textRect cx="22.6772" cy="355.831" width="45.36" height="28.3465"/>
			<rect x="0" y="341.657" width="45.3543" height="28.3465" class="st6"/>
			<text x="12.11" y="361.23" class="st7" v:langID="2057"><v:paragraph v:horizAlign="1"/><v:tabList/>Fw</text>		</g>
		<g id="shape356-405" v:mID="356" v:groupContext="shape" transform="translate(618.703,-6.41929)">
			<title>Sheet.356</title>
			<desc>Gr</desc>
			<v:textBlock v:margins="rect(4,4,4,4)" v:tabSpace="42.5197"/>
			<v:textRect cx="22.6772" cy="355.831" width="45.36" height="28.3465"/>
			<rect x="0" y="341.657" width="45.3543" height="28.3465" class="st6"/>
			<text x="13.86" y="361.23" class="st7" v:langID="2057"><v:paragraph v:horizAlign="1"/><v:tabList/>Gr</text>		</g>
		<g id="shape357-408" v:mID="357" v:groupContext="shape" transform="translate(661.222,-6.41929)">
			<title>Sheet.357</title>
			<desc>Hw</desc>
			<v:textBlock v:margins="rect(4,4,4,4)" v:tabSpace="42.5197"/>
			<v:textRect cx="22.6772" cy="355.831" width="45.36" height="28.3465"/>
			<rect x="0" y="341.657" width="45.3543" height="28.3465" class="st6"/>
			<text x="10.64" y="361.23" class="st7" v:langID="2057"><v:paragraph v:horizAlign="1"/><v:tabList/>Hw</text>		</g>
	</g>
</svg>
