<?xml version="1.0" encoding="UTF-8" standalone="no"?>
<!DOCTYPE svg PUBLIC "-//W3C//DTD SVG 1.0//EN" "http://www.w3.org/TR/2001/REC-SVG-20010904/DTD/svg10.dtd">
<!-- Generated by Microsoft Visio 11.0, SVG Export, v1.0 avalon-waveforms-variable-wait.svg Page-1 -->
<svg xmlns="http://www.w3.org/2000/svg" xmlns:xlink="http://www.w3.org/1999/xlink" xmlns:ev="http://www.w3.org/2001/xml-events"
		xmlns:v="http://schemas.microsoft.com/visio/2003/SVGExtensions/" width="10.3358in" height="5.13894in"
		viewBox="0 0 744.177 370.004" xml:space="preserve" color-interpolation-filters="sRGB" class="st16">
	<v:documentProperties v:langID="2057" v:metric="true" v:viewMarkup="false"/>

	<style type="text/css">
	<![CDATA[
		.st1 {fill:#ffffff;stroke:none;stroke-linecap:round;stroke-linejoin:round;stroke-width:0.75}
		.st2 {stroke:#c4d6a0;stroke-linecap:round;stroke-linejoin:round;stroke-width:2.25}
		.st3 {stroke:#92cddc;stroke-linecap:round;stroke-linejoin:round;stroke-width:2.25}
		.st4 {stroke:#d99690;stroke-linecap:round;stroke-linejoin:round;stroke-width:2.25}
		.st5 {stroke:#000000;stroke-linecap:round;stroke-linejoin:round;stroke-width:0.75}
		.st6 {fill:none;stroke:none;stroke-linecap:round;stroke-linejoin:round;stroke-width:0.75}
		.st7 {fill:#000000;font-family:Calibri;font-size:1.5em}
		.st8 {stroke:#000000;stroke-dasharray:0,3.75;stroke-linecap:round;stroke-linejoin:round;stroke-width:0.75}
		.st9 {stroke:#000000;stroke-dasharray:0,2.25;stroke-linecap:round;stroke-linejoin:round;stroke-width:0.75}
		.st10 {fill:#a5a5a5;stroke:#000000;stroke-linecap:round;stroke-linejoin:round;stroke-width:0.75}
		.st11 {fill:#d99690;stroke:#000000;stroke-linecap:round;stroke-linejoin:round;stroke-width:0.75}
		.st12 {fill:#ffffff;stroke:none;stroke-linecap:butt;stroke-width:7.2}
		.st13 {fill:#000000;font-family:Calibri;font-size:1.00001em}
		.st14 {fill:#92cddc;stroke:#000000;stroke-linecap:round;stroke-linejoin:round;stroke-width:0.75}
		.st15 {fill:#c4d6a0;stroke:#000000;stroke-linecap:round;stroke-linejoin:round;stroke-width:0.75}
		.st16 {fill:none;fill-rule:evenodd;font-size:12px;overflow:visible;stroke-linecap:square;stroke-miterlimit:3}
	]]>
	</style>

	<g v:mID="0" v:index="1" v:groupContext="foregroundPage">
		<title>Page-1</title>
		<v:pageProperties v:drawingScale="0.0393701" v:pageScale="0.0393701" v:drawingUnits="24" v:shadowOffsetX="8.50394"
				v:shadowOffsetY="-8.50394"/>
		<g id="shape391-1" v:mID="391" v:groupContext="shape" transform="translate(0.75,-0.75)">
			<title>Sheet.391</title>
			<rect x="0" y="1.5" width="742.677" height="368.504" class="st1"/>
		</g>
		<g id="shape330-3" v:mID="330" v:groupContext="shape" transform="translate(244.53,-46.1043)">
			<title>Sheet.330</title>
			<path d="M0 126.22 L0 290.63 L45.35 301.97 L45.35 324.65 L0 335.99 L0 370" class="st2"/>
		</g>
		<g id="shape212-6" v:mID="212" v:groupContext="shape" transform="translate(652.719,-46.1043)">
			<title>Sheet.212</title>
			<path d="M0 126.22 L0 290.63 L45.35 301.97 L45.35 324.65 L0 335.99 L0 370" class="st3"/>
		</g>
		<g id="shape229-9" v:mID="229" v:groupContext="shape" transform="translate(335.238,-46.1043)">
			<title>Sheet.229</title>
			<path d="M0 126.22 L0 290.63 L45.35 301.97 L45.35 324.65 L0 335.99 L0 370" class="st3"/>
		</g>
		<g id="shape230-12" v:mID="230" v:groupContext="shape" transform="translate(199.175,-46.1043)">
			<title>Sheet.230</title>
			<path d="M0 126.22 L0 290.63 L45.35 301.97 L45.35 324.65 L0 335.99 L0 370" class="st4"/>
		</g>
		<g id="shape232-15" v:mID="232" v:groupContext="shape" transform="translate(886.659,80.1201) rotate(90)">
			<title>Sheet.232</title>
			<path d="M0 370 L243.78 370" class="st2"/>
		</g>
		<g id="shape233-18" v:mID="233" v:groupContext="shape" transform="translate(131.144,-295.553)">
			<title>Sheet.233</title>
			<path d="M0 370 L22.68 370 L22.68 347.33 L45.35 347.33 L45.35 370" class="st5"/>
		</g>
		<g id="shape234-21" v:mID="234" v:groupContext="shape" transform="translate(176.498,-295.553)">
			<title>Sheet.234</title>
			<path d="M0 370 L22.68 370 L22.68 347.33 L45.35 347.33 L45.35 370" class="st5"/>
		</g>
		<g id="shape235-24" v:mID="235" v:groupContext="shape" transform="translate(221.852,-295.553)">
			<title>Sheet.235</title>
			<path d="M0 370 L22.68 370 L22.68 347.33 L45.35 347.33 L45.35 370" class="st5"/>
		</g>
		<g id="shape236-27" v:mID="236" v:groupContext="shape" transform="translate(267.207,-295.553)">
			<title>Sheet.236</title>
			<path d="M0 370 L22.68 370 L22.68 347.33 L45.35 347.33 L45.35 370" class="st5"/>
		</g>
		<g id="shape237-30" v:mID="237" v:groupContext="shape" transform="translate(312.561,-295.553)">
			<title>Sheet.237</title>
			<path d="M0 370 L22.68 370 L22.68 347.33 L45.35 347.33 L45.35 370" class="st5"/>
		</g>
		<g id="shape238-33" v:mID="238" v:groupContext="shape" transform="translate(80.1201,-267.207)">
			<title>Sheet.238</title>
			<desc>read</desc>
			<v:textBlock v:margins="rect(4,4,4,4)" v:tabSpace="42.5197"/>
			<v:textRect cx="25.5118" cy="364.335" width="51.03" height="11.3386"/>
			<rect x="0" y="358.665" width="51.0236" height="11.3386" class="st6"/>
			<text x="8.86" y="369.73" class="st7" v:langID="2057"><v:paragraph v:horizAlign="1"/><v:tabList/>read</text>		</g>
		<g id="shape239-36" v:mID="239" v:groupContext="shape" transform="translate(56.3091,-97.128)">
			<title>Sheet.239</title>
			<desc>readdata</desc>
			<v:textBlock v:margins="rect(4,4,4,4)" v:tabSpace="42.5197"/>
			<v:textRect cx="37.4173" cy="364.335" width="74.84" height="11.3386"/>
			<rect x="0" y="358.665" width="74.8346" height="11.3386" class="st6"/>
			<text x="4.4" y="369.73" class="st7" v:langID="2057"><v:paragraph v:horizAlign="1"/><v:tabList/>readdata</text>		</g>
		<g id="shape240-39" v:mID="240" v:groupContext="shape" transform="translate(523.825,34.7657) rotate(90)">
			<title>Sheet.240</title>
			<path d="M0 370 L294.8 370" class="st8"/>
		</g>
		<g id="shape241-42" v:mID="241" v:groupContext="shape" transform="translate(569.179,34.7657) rotate(90)">
			<title>Sheet.241</title>
			<path d="M0 370 L294.8 370" class="st8"/>
		</g>
		<g id="shape242-45" v:mID="242" v:groupContext="shape" transform="translate(614.533,34.7657) rotate(90)">
			<title>Sheet.242</title>
			<path d="M0 370 L294.8 370" class="st8"/>
		</g>
		<g id="shape243-48" v:mID="243" v:groupContext="shape" transform="translate(659.888,34.7657) rotate(90)">
			<title>Sheet.243</title>
			<path d="M0 370 L294.8 370" class="st8"/>
		</g>
		<g id="shape244-51" v:mID="244" v:groupContext="shape" transform="translate(80.1201,-233.191)">
			<title>Sheet.244</title>
			<desc>write</desc>
			<v:textBlock v:margins="rect(4,4,4,4)" v:tabSpace="42.5197"/>
			<v:textRect cx="25.5118" cy="364.335" width="51.03" height="11.3386"/>
			<rect x="0" y="358.665" width="51.0236" height="11.3386" class="st6"/>
			<text x="6.38" y="369.73" class="st7" v:langID="2057"><v:paragraph v:horizAlign="1"/><v:tabList/>write</text>		</g>
		<g id="shape245-54" v:mID="245" v:groupContext="shape" transform="translate(131.144,-227.522)">
			<title>Sheet.245</title>
			<path d="M0 370 L209.76 370" class="st5"/>
		</g>
		<g id="shape246-57" v:mID="246" v:groupContext="shape" transform="translate(131.144,-272.876)">
			<title>Sheet.246</title>
			<path d="M0 370 L595.28 370" class="st9"/>
		</g>
		<g id="shape247-60" v:mID="247" v:groupContext="shape" transform="translate(131.144,-238.86)">
			<title>Sheet.247</title>
			<path d="M0 370 L595.28 370" class="st9"/>
		</g>
		<g id="shape248-63" v:mID="248" v:groupContext="shape" transform="translate(131.144,-102.797)">
			<title>Sheet.248</title>
			<path d="M0 370 L164.41 370" class="st9"/>
		</g>
		<g id="shape249-66" v:mID="249" v:groupContext="shape" transform="translate(80.1201,-199.175)">
			<title>Sheet.249</title>
			<desc>addr</desc>
			<v:textBlock v:margins="rect(4,4,4,4)" v:tabSpace="42.5197"/>
			<v:textRect cx="25.5118" cy="364.335" width="51.03" height="11.3386"/>
			<rect x="0" y="358.665" width="51.0236" height="11.3386" class="st6"/>
			<text x="8.61" y="369.73" class="st7" v:langID="2057"><v:paragraph v:horizAlign="1"/><v:tabList/>addr</text>		</g>
		<g id="shape250-69" v:mID="250" v:groupContext="shape" transform="translate(131.144,-204.844)">
			<title>Sheet.250</title>
			<path d="M0 370 L164.41 370" class="st9"/>
		</g>
		<g id="shape251-72" v:mID="251" v:groupContext="shape" transform="translate(47.8051,-131.144)">
			<title>Sheet.251</title>
			<desc>writedata</desc>
			<v:textBlock v:margins="rect(4,4,4,4)" v:tabSpace="42.5197"/>
			<v:textRect cx="41.6693" cy="364.335" width="83.34" height="11.3386"/>
			<rect x="0" y="358.665" width="83.3386" height="11.3386" class="st6"/>
			<text x="6.17" y="369.73" class="st7" v:langID="2057"><v:paragraph v:horizAlign="1"/><v:tabList/>writedata</text>		</g>
		<g id="shape252-75" v:mID="252" v:groupContext="shape" transform="translate(131.144,-136.813)">
			<title>Sheet.252</title>
			<path d="M0 370 L306.14 370" class="st9"/>
		</g>
		<g id="shape253-78" v:mID="253" v:groupContext="shape" transform="translate(34.7657,-165.159)">
			<title>Sheet.253</title>
			<desc>byteenable</desc>
			<v:textBlock v:margins="rect(4,4,4,4)" v:tabSpace="42.5197"/>
			<v:textRect cx="48.189" cy="364.335" width="96.38" height="11.3386"/>
			<rect x="0" y="358.665" width="96.378" height="11.3386" class="st6"/>
			<text x="7.1" y="369.73" class="st7" v:langID="2057"><v:paragraph v:horizAlign="1"/><v:tabList/>byteenable</text>		</g>
		<g id="shape254-81" v:mID="254" v:groupContext="shape" transform="translate(131.144,-170.829)">
			<title>Sheet.254</title>
			<path d="M0 370 L164.41 370" class="st9"/>
		</g>
		<g id="shape255-84" v:mID="255" v:groupContext="shape" transform="translate(357.915,-295.553)">
			<title>Sheet.255</title>
			<path d="M0 370 L22.68 370 L22.68 347.33 L45.35 347.33 L45.35 370" class="st5"/>
		</g>
		<g id="shape256-87" v:mID="256" v:groupContext="shape" transform="translate(403.27,-295.553)">
			<title>Sheet.256</title>
			<path d="M0 370 L22.68 370 L22.68 347.33 L45.35 347.33 L45.35 370" class="st5"/>
		</g>
		<g id="shape257-90" v:mID="257" v:groupContext="shape" transform="translate(705.242,34.7657) rotate(90)">
			<title>Sheet.257</title>
			<path d="M0 370 L294.8 370" class="st8"/>
		</g>
		<g id="shape259-93" v:mID="259" v:groupContext="shape" transform="translate(795.951,34.7657) rotate(90)">
			<title>Sheet.259</title>
			<path d="M0 370 L294.8 370" class="st8"/>
		</g>
		<g id="shape260-96" v:mID="260" v:groupContext="shape" transform="translate(131.144,-261.537)">
			<title>Sheet.260</title>
			<path d="M0 370 L28.35 370" class="st5"/>
		</g>
		<g id="shape261-99" v:mID="261" v:groupContext="shape" transform="translate(159.49,-261.537)">
			<title>Sheet.261</title>
			<path d="M0 370 L5.67 347.33 L45.35 347.33" class="st5"/>
		</g>
		<g id="shape263-102" v:mID="263" v:groupContext="shape" transform="translate(340.907,-261.537)">
			<title>Sheet.263</title>
			<path d="M0 347.33 L5.67 370 L45.35 370" class="st5"/>
		</g>
		<g id="shape264-105" v:mID="264" v:groupContext="shape" transform="translate(131.144,-193.506)">
			<title>Sheet.264</title>
			<path d="M0 347.33 L0 370 L28.35 370 L31.18 358.67 L28.35 347.33 L0 347.33 Z" class="st10"/>
		</g>
		<g id="shape265-107" v:mID="265" v:groupContext="shape" transform="translate(131.144,-159.49)">
			<title>Sheet.265</title>
			<path d="M0 347.33 L0 370 L28.35 370 L31.18 358.67 L28.35 347.33 L0 347.33 Z" class="st10"/>
		</g>
		<g id="shape266-109" v:mID="266" v:groupContext="shape" transform="translate(448.624,-295.553)">
			<title>Sheet.266</title>
			<path d="M0 370 L22.68 370 L22.68 347.33 L45.35 347.33 L45.35 370" class="st5"/>
		</g>
		<g id="shape267-112" v:mID="267" v:groupContext="shape" transform="translate(493.978,-295.553)">
			<title>Sheet.267</title>
			<path d="M0 370 L22.68 370 L22.68 347.33 L45.35 347.33 L45.35 370" class="st5"/>
		</g>
		<g id="shape268-115" v:mID="268" v:groupContext="shape" transform="translate(539.333,-295.553)">
			<title>Sheet.268</title>
			<path d="M0 370 L22.68 370 L22.68 347.33 L45.35 347.33 L45.35 370" class="st5"/>
		</g>
		<g id="shape269-118" v:mID="269" v:groupContext="shape" transform="translate(675.396,-295.553)">
			<title>Sheet.269</title>
			<path d="M0 370 L22.68 370 L22.68 347.33 L45.35 347.33 L45.35 370" class="st5"/>
		</g>
		<g id="shape270-121" v:mID="270" v:groupContext="shape" transform="translate(431.616,-227.522)">
			<title>Sheet.270</title>
			<path d="M0 370 L5.67 347.33 L45.35 347.33" class="st5"/>
		</g>
		<g id="shape271-124" v:mID="271" v:groupContext="shape" transform="translate(131.144,-125.474)">
			<title>Sheet.271</title>
			<path d="M209.76 347.33 L0 347.33 L0 358.67 L0 370 L209.76 370 L212.6 358.67 L209.76 347.33 Z" class="st10"/>
		</g>
		<g id="shape274-126" v:mID="274" v:groupContext="shape" transform="translate(131.144,-68.7815)">
			<title>Sheet.274</title>
			<path d="M0 370 L595.28 370" class="st9"/>
		</g>
		<g id="shape275-129" v:mID="275" v:groupContext="shape" transform="translate(20.5925,-63.1122)">
			<title>Sheet.275</title>
			<desc>waitrequest</desc>
			<v:textBlock v:margins="rect(4,4,4,4)" v:tabSpace="42.5197"/>
			<v:textRect cx="54.1417" cy="364.335" width="108.29" height="11.3386"/>
			<rect x="0" y="358.665" width="108.283" height="11.3386" class="st6"/>
			<text x="10.23" y="369.73" class="st7" v:langID="2057"><v:paragraph v:horizAlign="1"/><v:tabList/>waitrequest</text>		</g>
		<g id="shape276-132" v:mID="276" v:groupContext="shape" transform="translate(726.419,444.455) rotate(180)">
			<title>Sheet.276</title>
			<path d="M0 370 L5.67 370" class="st5"/>
		</g>
		<g id="shape277-135" v:mID="277" v:groupContext="shape" transform="translate(84.372,-304.057)">
			<title>Sheet.277</title>
			<desc>clk</desc>
			<v:textBlock v:margins="rect(4,4,4,4)" v:tabSpace="42.5197"/>
			<v:textRect cx="25.5118" cy="364.335" width="51.03" height="11.3386"/>
			<rect x="0" y="358.665" width="51.0236" height="11.3386" class="st6"/>
			<text x="15.55" y="369.73" class="st7" v:langID="2057"><v:paragraph v:horizAlign="1"/><v:tabList/>clk</text>		</g>
		<g id="shape278-138" v:mID="278" v:groupContext="shape" transform="translate(584.687,-295.553)">
			<title>Sheet.278</title>
			<path d="M0 370 L22.68 370 L22.68 347.33 L45.35 347.33 L45.35 370" class="st5"/>
		</g>
		<g id="shape279-141" v:mID="279" v:groupContext="shape" transform="translate(630.041,-295.553)">
			<title>Sheet.279</title>
			<path d="M0 370 L22.68 370 L22.68 347.33 L45.35 347.33 L45.35 370" class="st5"/>
		</g>
		<g id="shape280-144" v:mID="280" v:groupContext="shape" transform="translate(841.305,34.7657) rotate(90)">
			<title>Sheet.280</title>
			<path d="M0 370 L294.8 370" class="st8"/>
		</g>
		<g id="shape281-147" v:mID="281" v:groupContext="shape" transform="translate(886.659,34.7657) rotate(90)">
			<title>Sheet.281</title>
			<path d="M0 370 L294.8 370" class="st8"/>
		</g>
		<g id="shape282-150" v:mID="282" v:groupContext="shape" transform="translate(932.014,34.7657) rotate(90)">
			<title>Sheet.282</title>
			<path d="M0 370 L294.8 370" class="st8"/>
		</g>
		<g id="shape283-153" v:mID="283" v:groupContext="shape" transform="translate(977.368,34.7657) rotate(90)">
			<title>Sheet.283</title>
			<path d="M0 370 L294.8 370" class="st8"/>
		</g>
		<g id="shape284-156" v:mID="284" v:groupContext="shape" transform="translate(1022.72,34.7657) rotate(90)">
			<title>Sheet.284</title>
			<path d="M0 370 L294.8 370" class="st8"/>
		</g>
		<g id="shape285-159" v:mID="285" v:groupContext="shape" transform="translate(1068.08,34.7657) rotate(90)">
			<title>Sheet.285</title>
			<path d="M0 370 L294.8 370" class="st8"/>
		</g>
		<g id="shape287-162" v:mID="287" v:groupContext="shape" transform="translate(272.876,-57.4429)">
			<title>Sheet.287</title>
			<path d="M0 370 L5.67 347.33 L45.35 347.33" class="st5"/>
		</g>
		<g id="shape289-165" v:mID="289" v:groupContext="shape" transform="translate(207.679,-91.4587)">
			<title>Sheet.289</title>
			<desc>data</desc>
			<v:textBlock v:margins="rect(4,4,4,4)" v:tabSpace="42.5197"/>
			<v:textRect cx="22.6772" cy="358.665" width="45.36" height="22.6772"/>
			<path d="M42.52 347.33 L2.83 347.33 L0 358.67 L2.83 370 L42.52 370 L45.35 358.67 L42.52 347.33 Z" class="st11"/>
			<rect v:rectContext="textBkgnd" x="11.7669" y="351.465" width="21.8205" height="14.4001" class="st12"/>
			<text x="11.77" y="362.27" class="st13" v:langID="2057"><v:paragraph v:horizAlign="1"/><v:tabList/>data</text>		</g>
		<g id="shape291-169" v:mID="291" v:groupContext="shape" transform="translate(204.844,-284.215)">
			<title>Sheet.291</title>
			<path d="M0 370 L45.35 370" class="st5"/>
		</g>
		<g id="shape298-172" v:mID="298" v:groupContext="shape" transform="translate(318.23,-57.4429)">
			<title>Sheet.298</title>
			<path d="M0 347.33 L5.67 370 L45.35 370" class="st5"/>
		</g>
		<g id="shape307-175" v:mID="307" v:groupContext="shape" transform="translate(389.096,-91.4587)">
			<title>Sheet.307</title>
			<path d="M269.29 347.33 L2.83 347.33 L0 358.67 L2.83 370 L269.29 370 L272.13 358.67 L269.29 347.33 Z" class="st10"/>
		</g>
		<g id="shape308-177" v:mID="308" v:groupContext="shape" transform="translate(454.293,-57.4429)">
			<title>Sheet.308</title>
			<path d="M0 370 L5.67 347.33 L45.35 347.33" class="st5"/>
		</g>
		<g id="shape310-180" v:mID="310" v:groupContext="shape" transform="translate(476.97,-250.199)">
			<title>Sheet.310</title>
			<path d="M0 370 L45.35 370" class="st5"/>
		</g>
		<g id="shape313-183" v:mID="313" v:groupContext="shape" transform="translate(525.159,-193.506)">
			<title>Sheet.313</title>
			<desc>addr</desc>
			<v:textBlock v:margins="rect(4,4,4,4)" v:tabSpace="42.5197"/>
			<v:textRect cx="68.0315" cy="358.665" width="136.07" height="22.6772"/>
			<path d="M133.23 347.33 L2.83 347.33 L0 358.67 L2.83 370 L133.23 370 L136.06 359.52 L133.23 347.33 Z" class="st14"/>
			<rect v:rectContext="textBkgnd" x="56.7609" y="351.465" width="22.5412" height="14.4001" class="st12"/>
			<text x="56.76" y="362.27" class="st13" v:langID="2057"><v:paragraph v:horizAlign="1"/><v:tabList/>addr</text>		</g>
		<g id="shape319-187" v:mID="319" v:groupContext="shape" transform="translate(661.222,-193.506)">
			<title>Sheet.319</title>
			<path d="M43.09 347.33 L3.4 347.33 L0 358.67 L3.4 370 L43.09 370 L45.92 358.67 L43.09 347.33 Z" class="st10"/>
		</g>
		<g id="shape320-189" v:mID="320" v:groupContext="shape" transform="translate(661.222,-159.49)">
			<title>Sheet.320</title>
			<path d="M43.09 347.33 L3.4 347.33 L0 358.67 L3.4 370 L43.09 370 L45.92 358.67 L43.09 347.33 Z" class="st10"/>
		</g>
		<g id="shape321-191" v:mID="321" v:groupContext="shape" transform="translate(661.222,-125.474)">
			<title>Sheet.321</title>
			<path d="M43.09 347.33 L3.4 347.33 L0 358.67 L3.4 370 L43.09 370 L45.92 358.67 L43.09 347.33 Z" class="st10"/>
		</g>
		<g id="shape322-193" v:mID="322" v:groupContext="shape" transform="translate(388.246,-193.506)">
			<title>Sheet.322</title>
			<path d="M43.09 347.33 L3.4 347.33 L0 358.67 L3.4 370 L43.09 370 L45.92 358.67 L43.09 347.33 Z" class="st10"/>
		</g>
		<g id="shape323-195" v:mID="323" v:groupContext="shape" transform="translate(388.246,-159.49)">
			<title>Sheet.323</title>
			<path d="M43.09 347.33 L3.4 347.33 L0 358.67 L3.4 370 L43.09 370 L45.92 358.67 L43.09 347.33 Z" class="st10"/>
		</g>
		<g id="shape324-197" v:mID="324" v:groupContext="shape" transform="translate(388.53,-125.474)">
			<title>Sheet.324</title>
			<path d="M43.09 347.33 L3.4 347.33 L0 358.67 L3.4 370 L43.09 370 L45.92 358.67 L43.09 347.33 Z" class="st10"/>
		</g>
		<g id="shape286-199" v:mID="286" v:groupContext="shape" transform="translate(148.152,-57.4429)">
			<title>Sheet.286</title>
			<path d="M0 370 L45.35 370" class="st5"/>
		</g>
		<g id="shape288-202" v:mID="288" v:groupContext="shape" transform="translate(162.325,-193.506)">
			<title>Sheet.288</title>
			<desc>addr</desc>
			<v:textBlock v:margins="rect(4,4,4,4)" v:tabSpace="42.5197"/>
			<v:textRect cx="22.6772" cy="358.665" width="45.36" height="22.6772"/>
			<path d="M42.52 347.33 L2.83 347.33 L0 358.67 L2.83 370 L42.52 370 L45.35 358.67 L42.52 347.33 Z" class="st11"/>
			<rect v:rectContext="textBkgnd" x="11.4066" y="351.465" width="22.5412" height="14.4001" class="st12"/>
			<text x="11.41" y="362.27" class="st13" v:langID="2057"><v:paragraph v:horizAlign="1"/><v:tabList/>addr</text>		</g>
		<g id="shape290-206" v:mID="290" v:groupContext="shape" transform="translate(162.325,-159.49)">
			<title>Sheet.290</title>
			<desc>byten</desc>
			<v:textBlock v:margins="rect(4,4,4,4)" v:tabSpace="42.5197"/>
			<v:textRect cx="22.6772" cy="358.665" width="45.36" height="22.6772"/>
			<path d="M42.52 347.33 L2.83 347.33 L0 358.67 L2.83 370 L42.52 370 L45.35 358.67 L42.52 347.33 Z" class="st11"/>
			<rect v:rectContext="textBkgnd" x="8.66135" y="351.465" width="28.0316" height="14.4001" class="st12"/>
			<text x="8.66" y="362.27" class="st13" v:langID="2057"><v:paragraph v:horizAlign="1"/><v:tabList/>byten</text>		</g>
		<g id="shape272-210" v:mID="272" v:groupContext="shape" transform="translate(207.679,-193.506)">
			<title>Sheet.272</title>
			<desc>data</desc>
			<v:textBlock v:margins="rect(4,4,4,4)" v:tabSpace="42.5197"/>
			<v:textRect cx="22.6772" cy="358.665" width="45.36" height="22.6772"/>
			<path d="M42.52 347.33 L2.83 347.33 L0 358.67 L2.83 370 L42.52 370 L45.35 358.67 L42.52 347.33 Z" class="st15"/>
			<rect v:rectContext="textBkgnd" x="11.7669" y="351.465" width="21.8205" height="14.4001" class="st12"/>
			<text x="11.77" y="362.27" class="st13" v:langID="2057"><v:paragraph v:horizAlign="1"/><v:tabList/>data</text>		</g>
		<g id="shape296-214" v:mID="296" v:groupContext="shape" transform="translate(207.679,-159.49)">
			<title>Sheet.296</title>
			<desc>data</desc>
			<v:textBlock v:margins="rect(4,4,4,4)" v:tabSpace="42.5197"/>
			<v:textRect cx="22.6772" cy="358.665" width="45.36" height="22.6772"/>
			<path d="M42.52 347.33 L2.83 347.33 L0 358.67 L2.83 370 L42.52 370 L45.35 358.67 L42.52 347.33 Z" class="st15"/>
			<rect v:rectContext="textBkgnd" x="11.7669" y="351.465" width="21.8205" height="14.4001" class="st12"/>
			<text x="11.77" y="362.27" class="st13" v:langID="2057"><v:paragraph v:horizAlign="1"/><v:tabList/>data</text>		</g>
		<g id="shape297-218" v:mID="297" v:groupContext="shape" transform="translate(253.033,-91.4587)">
			<title>Sheet.297</title>
			<desc>data</desc>
			<v:textBlock v:margins="rect(4,4,4,4)" v:tabSpace="42.5197"/>
			<v:textRect cx="22.6772" cy="358.665" width="45.36" height="22.6772"/>
			<path d="M42.52 347.33 L2.83 347.33 L0 358.67 L2.83 370 L42.52 370 L45.35 358.67 L42.52 347.33 Z" class="st15"/>
			<rect v:rectContext="textBkgnd" x="11.7669" y="351.465" width="21.8205" height="14.4001" class="st12"/>
			<text x="11.77" y="362.27" class="st13" v:langID="2057"><v:paragraph v:horizAlign="1"/><v:tabList/>data</text>		</g>
		<g id="shape328-222" v:mID="328" v:groupContext="shape" transform="translate(193.506,-57.4429)">
			<title>Sheet.328</title>
			<path d="M0 370 L45.35 370" class="st5"/>
		</g>
		<g id="shape329-225" v:mID="329" v:groupContext="shape" transform="translate(238.86,-57.4429)">
			<title>Sheet.329</title>
			<path d="M0 370 L34.02 370" class="st5"/>
		</g>
		<g id="shape293-228" v:mID="293" v:groupContext="shape" transform="translate(253.033,-193.506)">
			<title>Sheet.293</title>
			<desc>addr</desc>
			<v:textBlock v:margins="rect(4,4,4,4)" v:tabSpace="42.5197"/>
			<v:textRect cx="45.3543" cy="358.665" width="90.71" height="22.6772"/>
			<path d="M87.87 347.33 L2.83 347.33 L0 358.67 L2.83 370 L87.87 370 L90.71 358.67 L87.87 347.33 Z" class="st14"/>
			<rect v:rectContext="textBkgnd" x="34.0837" y="351.465" width="22.5412" height="14.4001" class="st12"/>
			<text x="34.08" y="362.27" class="st13" v:langID="2057"><v:paragraph v:horizAlign="1"/><v:tabList/>addr</text>		</g>
		<g id="shape294-232" v:mID="294" v:groupContext="shape" transform="translate(253.033,-159.49)">
			<title>Sheet.294</title>
			<desc>byten</desc>
			<v:textBlock v:margins="rect(4,4,4,4)" v:tabSpace="42.5197"/>
			<v:textRect cx="45.3543" cy="358.665" width="90.71" height="22.6772"/>
			<path d="M87.87 347.33 L2.83 347.33 L0 358.67 L2.83 370 L87.87 370 L90.71 358.67 L87.87 347.33 Z" class="st14"/>
			<rect v:rectContext="textBkgnd" x="31.3385" y="351.465" width="28.0316" height="14.4001" class="st12"/>
			<text x="31.34" y="362.27" class="st13" v:langID="2057"><v:paragraph v:horizAlign="1"/><v:tabList/>byten</text>		</g>
		<g id="shape292-236" v:mID="292" v:groupContext="shape" transform="translate(250.199,-284.215)">
			<title>Sheet.292</title>
			<path d="M0 370 L45.35 370" class="st5"/>
		</g>
		<g id="shape262-239" v:mID="262" v:groupContext="shape" transform="translate(340.907,-227.522)">
			<title>Sheet.262</title>
			<path d="M0 370 L5.67 347.33 L45.35 347.33" class="st5"/>
		</g>
		<g id="shape295-242" v:mID="295" v:groupContext="shape" transform="translate(343.742,-193.506)">
			<title>Sheet.295</title>
			<desc>addr</desc>
			<v:textBlock v:margins="rect(4,4,4,4)" v:tabSpace="42.5197"/>
			<v:textRect cx="22.6772" cy="358.665" width="45.36" height="22.6772"/>
			<path d="M42.52 347.33 L2.83 347.33 L0 358.67 L2.83 370 L42.52 370 L45.35 358.67 L42.52 347.33 Z" class="st11"/>
			<rect v:rectContext="textBkgnd" x="11.4066" y="351.465" width="22.5412" height="14.4001" class="st12"/>
			<text x="11.41" y="362.27" class="st13" v:langID="2057"><v:paragraph v:horizAlign="1"/><v:tabList/>addr</text>		</g>
		<g id="shape301-246" v:mID="301" v:groupContext="shape" transform="translate(343.742,-159.49)">
			<title>Sheet.301</title>
			<desc>byten</desc>
			<v:textBlock v:margins="rect(4,4,4,4)" v:tabSpace="42.5197"/>
			<v:textRect cx="22.6772" cy="358.665" width="45.36" height="22.6772"/>
			<path d="M42.52 347.33 L2.83 347.33 L0 358.67 L2.83 370 L42.52 370 L45.35 358.67 L42.52 347.33 Z" class="st11"/>
			<rect v:rectContext="textBkgnd" x="8.66135" y="351.465" width="28.0316" height="14.4001" class="st12"/>
			<text x="8.66" y="362.27" class="st13" v:langID="2057"><v:paragraph v:horizAlign="1"/><v:tabList/>byten</text>		</g>
		<g id="shape331-250" v:mID="331" v:groupContext="shape" transform="translate(343.742,-125.474)">
			<title>Sheet.331</title>
			<desc>data</desc>
			<v:textBlock v:margins="rect(4,4,4,4)" v:tabSpace="42.5197"/>
			<v:textRect cx="22.6772" cy="358.665" width="45.36" height="22.6772"/>
			<path d="M42.52 347.33 L2.83 347.33 L0 358.67 L2.83 370 L42.52 370 L45.35 358.67 L42.52 347.33 Z" class="st11"/>
			<rect v:rectContext="textBkgnd" x="11.7669" y="351.465" width="21.8205" height="14.4001" class="st12"/>
			<text x="11.77" y="362.27" class="st13" v:langID="2057"><v:paragraph v:horizAlign="1"/><v:tabList/>data</text>		</g>
		<g id="shape300-254" v:mID="300" v:groupContext="shape" transform="translate(344.309,-91.4587)">
			<title>Sheet.300</title>
			<desc>data</desc>
			<v:textBlock v:margins="rect(4,4,4,4)" v:tabSpace="42.5197"/>
			<v:textRect cx="22.6772" cy="358.665" width="45.36" height="22.6772"/>
			<path d="M42.52 347.33 L2.83 347.33 L0 358.67 L2.83 370 L42.52 370 L45.35 358.67 L42.52 347.33 Z" class="st14"/>
			<rect v:rectContext="textBkgnd" x="11.7669" y="351.465" width="21.8205" height="14.4001" class="st12"/>
			<text x="11.77" y="362.27" class="st13" v:langID="2057"><v:paragraph v:horizAlign="1"/><v:tabList/>data</text>		</g>
		<g id="shape332-258" v:mID="332" v:groupContext="shape" transform="translate(298.955,-91.4587)">
			<title>Sheet.332</title>
			<path d="M43.09 347.33 L3.4 347.33 L0 358.67 L3.4 370 L43.09 370 L45.92 358.67 L43.09 347.33 Z" class="st10"/>
		</g>
		<g id="shape304-260" v:mID="304" v:groupContext="shape" transform="translate(434.451,-193.506)">
			<title>Sheet.304</title>
			<desc>addr</desc>
			<v:textBlock v:margins="rect(4,4,4,4)" v:tabSpace="42.5197"/>
			<v:textRect cx="45.3543" cy="358.665" width="90.71" height="22.6772"/>
			<path d="M87.87 347.33 L2.83 347.33 L0 358.67 L2.83 370 L87.87 370 L90.71 358.67 L87.87 347.33 Z" class="st15"/>
			<rect v:rectContext="textBkgnd" x="34.0837" y="351.465" width="22.5412" height="14.4001" class="st12"/>
			<text x="34.08" y="362.27" class="st13" v:langID="2057"><v:paragraph v:horizAlign="1"/><v:tabList/>addr</text>		</g>
		<g id="shape305-264" v:mID="305" v:groupContext="shape" transform="translate(434.451,-159.49)">
			<title>Sheet.305</title>
			<desc>byten</desc>
			<v:textBlock v:margins="rect(4,4,4,4)" v:tabSpace="42.5197"/>
			<v:textRect cx="45.3543" cy="358.665" width="90.71" height="22.6772"/>
			<path d="M87.87 347.33 L2.83 347.33 L0 358.67 L2.83 370 L87.87 370 L90.71 358.67 L87.87 347.33 Z" class="st15"/>
			<rect v:rectContext="textBkgnd" x="31.3385" y="351.465" width="28.0316" height="14.4001" class="st12"/>
			<text x="31.34" y="362.27" class="st13" v:langID="2057"><v:paragraph v:horizAlign="1"/><v:tabList/>byten</text>		</g>
		<g id="shape306-268" v:mID="306" v:groupContext="shape" transform="translate(386.262,-227.522)">
			<title>Sheet.306</title>
			<path d="M0 347.33 L5.67 370 L45.35 370" class="st5"/>
		</g>
		<g id="shape333-271" v:mID="333" v:groupContext="shape" transform="translate(295.553,-284.215)">
			<title>Sheet.333</title>
			<path d="M0 370 L45.35 370" class="st5"/>
		</g>
		<g id="shape334-274" v:mID="334" v:groupContext="shape" transform="translate(386.262,-261.537)">
			<title>Sheet.334</title>
			<path d="M0 370 L45.35 370" class="st5"/>
		</g>
		<g id="shape302-277" v:mID="302" v:groupContext="shape" transform="translate(434.451,-125.474)">
			<title>Sheet.302</title>
			<desc>data</desc>
			<v:textBlock v:margins="rect(4,4,4,4)" v:tabSpace="42.5197"/>
			<v:textRect cx="45.3543" cy="358.665" width="90.71" height="22.6772"/>
			<path d="M87.87 347.33 L2.83 347.33 L0 358.67 L2.83 370 L87.87 370 L90.71 358.67 L87.87 347.33 Z" class="st15"/>
			<rect v:rectContext="textBkgnd" x="34.4441" y="351.465" width="21.8205" height="14.4001" class="st12"/>
			<text x="34.44" y="362.27" class="st13" v:langID="2057"><v:paragraph v:horizAlign="1"/><v:tabList/>data</text>		</g>
		<g id="shape335-281" v:mID="335" v:groupContext="shape" transform="translate(750.596,80.1201) rotate(90)">
			<title>Sheet.335</title>
			<path d="M0 370 L243.78 370" class="st4"/>
		</g>
		<g id="shape336-284" v:mID="336" v:groupContext="shape" transform="translate(750.596,34.7657) rotate(90)">
			<title>Sheet.336</title>
			<path d="M0 370 L294.8 370" class="st8"/>
		</g>
		<g id="shape337-287" v:mID="337" v:groupContext="shape" transform="translate(363.585,-57.4429)">
			<title>Sheet.337</title>
			<path d="M0 370 L45.35 370" class="st5"/>
		</g>
		<g id="shape299-290" v:mID="299" v:groupContext="shape" transform="translate(408.939,-57.4429)">
			<title>Sheet.299</title>
			<path d="M0 370 L45.35 370" class="st5"/>
		</g>
		<g id="shape303-293" v:mID="303" v:groupContext="shape" transform="translate(499.648,-57.4429)">
			<title>Sheet.303</title>
			<path d="M0 347.33 L5.67 370 L45.35 370" class="st5"/>
		</g>
		<g id="shape326-296" v:mID="326" v:groupContext="shape" transform="translate(545.002,-57.4429)">
			<title>Sheet.326</title>
			<path d="M0 370 L5.67 347.33 L34.02 347.33" class="st5"/>
		</g>
		<g id="shape327-299" v:mID="327" v:groupContext="shape" transform="translate(630.041,-57.4429)">
			<title>Sheet.327</title>
			<path d="M0 347.33 L5.67 370 L79.37 370" class="st5"/>
		</g>
		<g id="shape309-302" v:mID="309" v:groupContext="shape" transform="translate(579.018,-80.1201)">
			<title>Sheet.309</title>
			<path d="M0 370 L51.02 370" class="st5"/>
		</g>
		<g id="shape273-305" v:mID="273" v:groupContext="shape" transform="translate(431.616,-261.537)">
			<title>Sheet.273</title>
			<path d="M0 370 L90.71 370" class="st5"/>
		</g>
		<g id="shape311-308" v:mID="311" v:groupContext="shape" transform="translate(522.325,-261.537)">
			<title>Sheet.311</title>
			<path d="M0 370 L5.67 347.33 L45.35 347.33" class="st5"/>
		</g>
		<g id="shape312-311" v:mID="312" v:groupContext="shape" transform="translate(567.679,-284.215)">
			<title>Sheet.312</title>
			<path d="M0 370 L45.35 370" class="st5"/>
		</g>
		<g id="shape314-314" v:mID="314" v:groupContext="shape" transform="translate(613.033,-284.215)">
			<title>Sheet.314</title>
			<path d="M0 370 L45.35 370" class="st5"/>
		</g>
		<g id="shape338-317" v:mID="338" v:groupContext="shape" transform="translate(658.388,-261.537)">
			<title>Sheet.338</title>
			<path d="M0 347.33 L5.67 370 L45.35 370" class="st5"/>
		</g>
		<g id="shape317-320" v:mID="317" v:groupContext="shape" transform="translate(522.325,-227.522)">
			<title>Sheet.317</title>
			<path d="M0 347.33 L5.67 370 L45.35 370" class="st5"/>
		</g>
		<g id="shape318-323" v:mID="318" v:groupContext="shape" transform="translate(567.679,-227.522)">
			<title>Sheet.318</title>
			<path d="M0 370 L45.35 370" class="st5"/>
		</g>
		<g id="shape339-326" v:mID="339" v:groupContext="shape" transform="translate(613.033,-227.522)">
			<title>Sheet.339</title>
			<path d="M0 370 L45.35 370" class="st5"/>
		</g>
		<g id="shape340-329" v:mID="340" v:groupContext="shape" transform="translate(658.388,-227.522)">
			<title>Sheet.340</title>
			<path d="M0 370 L45.35 370" class="st5"/>
		</g>
		<g id="shape341-332" v:mID="341" v:groupContext="shape" transform="translate(661.222,-91.4587)">
			<title>Sheet.341</title>
			<desc>data</desc>
			<v:textBlock v:margins="rect(4,4,4,4)" v:tabSpace="42.5197"/>
			<v:textRect cx="22.6772" cy="358.665" width="45.36" height="22.6772"/>
			<path d="M42.52 347.33 L2.83 347.33 L0 358.67 L2.83 370 L42.52 370 L45.35 358.67 L42.52 347.33 Z" class="st14"/>
			<rect v:rectContext="textBkgnd" x="11.7669" y="351.465" width="21.8205" height="14.4001" class="st12"/>
			<text x="11.77" y="362.27" class="st13" v:langID="2057"><v:paragraph v:horizAlign="1"/><v:tabList/>data</text>		</g>
		<g id="shape315-336" v:mID="315" v:groupContext="shape" transform="translate(525.159,-159.49)">
			<title>Sheet.315</title>
			<desc>byten</desc>
			<v:textBlock v:margins="rect(4,4,4,4)" v:tabSpace="42.5197"/>
			<v:textRect cx="68.0315" cy="358.665" width="136.07" height="22.6772"/>
			<path d="M133.23 347.33 L2.83 347.33 L0 358.67 L2.83 370 L133.23 370 L136.06 359.52 L133.23 347.33 Z" class="st14"/>
			<rect v:rectContext="textBkgnd" x="54.0157" y="351.465" width="28.0316" height="14.4001" class="st12"/>
			<text x="54.02" y="362.27" class="st13" v:langID="2057"><v:paragraph v:horizAlign="1"/><v:tabList/>byten</text>		</g>
		<g id="shape316-340" v:mID="316" v:groupContext="shape" transform="translate(525.159,-125.474)">
			<title>Sheet.316</title>
			<desc>data</desc>
			<v:textBlock v:margins="rect(4,4,4,4)" v:tabSpace="42.5197"/>
			<v:textRect cx="68.0315" cy="358.665" width="136.07" height="22.6772"/>
			<path d="M133.23 347.33 L2.83 347.33 L0 358.67 L2.83 370 L133.23 370 L136.06 359.52 L133.23 347.33 Z" class="st14"/>
			<rect v:rectContext="textBkgnd" x="57.1212" y="351.465" width="21.8205" height="14.4001" class="st12"/>
			<text x="57.12" y="362.27" class="st13" v:langID="2057"><v:paragraph v:horizAlign="1"/><v:tabList/>data</text>		</g>
		<g id="shape373-344" v:mID="373" v:groupContext="shape" transform="translate(131.144,-329.569)">
			<title>Sheet.373</title>
			<desc>1</desc>
			<v:textBlock v:margins="rect(4,4,4,4)" v:tabSpace="42.5197"/>
			<v:textRect cx="22.6772" cy="355.831" width="45.36" height="28.3465"/>
			<rect x="0" y="341.657" width="45.3543" height="28.3465" class="st6"/>
			<text x="18.12" y="361.23" class="st7" v:langID="2057"><v:paragraph v:horizAlign="1"/><v:tabList/>1</text>		</g>
		<g id="shape374-347" v:mID="374" v:groupContext="shape" transform="translate(176.498,-329.569)">
			<title>Sheet.374</title>
			<desc>2</desc>
			<v:textBlock v:margins="rect(4,4,4,4)" v:tabSpace="42.5197"/>
			<v:textRect cx="22.6772" cy="355.831" width="45.36" height="28.3465"/>
			<rect x="0" y="341.657" width="45.3543" height="28.3465" class="st6"/>
			<text x="18.12" y="361.23" class="st7" v:langID="2057"><v:paragraph v:horizAlign="1"/><v:tabList/>2</text>		</g>
		<g id="shape375-350" v:mID="375" v:groupContext="shape" transform="translate(221.852,-329.569)">
			<title>Sheet.375</title>
			<desc>3</desc>
			<v:textBlock v:margins="rect(4,4,4,4)" v:tabSpace="42.5197"/>
			<v:textRect cx="22.6772" cy="355.831" width="45.36" height="28.3465"/>
			<rect x="0" y="341.657" width="45.3543" height="28.3465" class="st6"/>
			<text x="18.12" y="361.23" class="st7" v:langID="2057"><v:paragraph v:horizAlign="1"/><v:tabList/>3</text>		</g>
		<g id="shape376-353" v:mID="376" v:groupContext="shape" transform="translate(267.207,-329.569)">
			<title>Sheet.376</title>
			<desc>4</desc>
			<v:textBlock v:margins="rect(4,4,4,4)" v:tabSpace="42.5197"/>
			<v:textRect cx="22.6772" cy="355.831" width="45.36" height="28.3465"/>
			<rect x="0" y="341.657" width="45.3543" height="28.3465" class="st6"/>
			<text x="18.12" y="361.23" class="st7" v:langID="2057"><v:paragraph v:horizAlign="1"/><v:tabList/>4</text>		</g>
		<g id="shape377-356" v:mID="377" v:groupContext="shape" transform="translate(312.561,-329.569)">
			<title>Sheet.377</title>
			<desc>5</desc>
			<v:textBlock v:margins="rect(4,4,4,4)" v:tabSpace="42.5197"/>
			<v:textRect cx="22.6772" cy="355.831" width="45.36" height="28.3465"/>
			<rect x="0" y="341.657" width="45.3543" height="28.3465" class="st6"/>
			<text x="18.12" y="361.23" class="st7" v:langID="2057"><v:paragraph v:horizAlign="1"/><v:tabList/>5</text>		</g>
		<g id="shape378-359" v:mID="378" v:groupContext="shape" transform="translate(357.915,-329.569)">
			<title>Sheet.378</title>
			<desc>6</desc>
			<v:textBlock v:margins="rect(4,4,4,4)" v:tabSpace="42.5197"/>
			<v:textRect cx="22.6772" cy="355.831" width="45.36" height="28.3465"/>
			<rect x="0" y="341.657" width="45.3543" height="28.3465" class="st6"/>
			<text x="18.12" y="361.23" class="st7" v:langID="2057"><v:paragraph v:horizAlign="1"/><v:tabList/>6</text>		</g>
		<g id="shape379-362" v:mID="379" v:groupContext="shape" transform="translate(403.27,-329.569)">
			<title>Sheet.379</title>
			<desc>7</desc>
			<v:textBlock v:margins="rect(4,4,4,4)" v:tabSpace="42.5197"/>
			<v:textRect cx="22.6772" cy="355.831" width="45.36" height="28.3465"/>
			<rect x="0" y="341.657" width="45.3543" height="28.3465" class="st6"/>
			<text x="18.12" y="361.23" class="st7" v:langID="2057"><v:paragraph v:horizAlign="1"/><v:tabList/>7</text>		</g>
		<g id="shape380-365" v:mID="380" v:groupContext="shape" transform="translate(448.624,-329.569)">
			<title>Sheet.380</title>
			<desc>8</desc>
			<v:textBlock v:margins="rect(4,4,4,4)" v:tabSpace="42.5197"/>
			<v:textRect cx="22.6772" cy="355.831" width="45.36" height="28.3465"/>
			<rect x="0" y="341.657" width="45.3543" height="28.3465" class="st6"/>
			<text x="18.12" y="361.23" class="st7" v:langID="2057"><v:paragraph v:horizAlign="1"/><v:tabList/>8</text>		</g>
		<g id="shape381-368" v:mID="381" v:groupContext="shape" transform="translate(493.978,-329.569)">
			<title>Sheet.381</title>
			<desc>9</desc>
			<v:textBlock v:margins="rect(4,4,4,4)" v:tabSpace="42.5197"/>
			<v:textRect cx="22.6772" cy="355.831" width="45.36" height="28.3465"/>
			<rect x="0" y="341.657" width="45.3543" height="28.3465" class="st6"/>
			<text x="18.12" y="361.23" class="st7" v:langID="2057"><v:paragraph v:horizAlign="1"/><v:tabList/>9</text>		</g>
		<g id="shape382-371" v:mID="382" v:groupContext="shape" transform="translate(539.333,-329.569)">
			<title>Sheet.382</title>
			<desc>10</desc>
			<v:textBlock v:margins="rect(4,4,4,4)" v:tabSpace="42.5197"/>
			<v:textRect cx="22.6772" cy="355.831" width="45.36" height="28.3465"/>
			<rect x="0" y="341.657" width="45.3543" height="28.3465" class="st6"/>
			<text x="13.55" y="361.23" class="st7" v:langID="2057"><v:paragraph v:horizAlign="1"/><v:tabList/>10</text>		</g>
		<g id="shape383-374" v:mID="383" v:groupContext="shape" transform="translate(584.687,-329.569)">
			<title>Sheet.383</title>
			<desc>11</desc>
			<v:textBlock v:margins="rect(4,4,4,4)" v:tabSpace="42.5197"/>
			<v:textRect cx="22.6772" cy="355.831" width="45.36" height="28.3465"/>
			<rect x="0" y="341.657" width="45.3543" height="28.3465" class="st6"/>
			<text x="13.55" y="361.23" class="st7" v:langID="2057"><v:paragraph v:horizAlign="1"/><v:tabList/>11</text>		</g>
		<g id="shape384-377" v:mID="384" v:groupContext="shape" transform="translate(630.041,-329.569)">
			<title>Sheet.384</title>
			<desc>12</desc>
			<v:textBlock v:margins="rect(4,4,4,4)" v:tabSpace="42.5197"/>
			<v:textRect cx="22.6772" cy="355.831" width="45.36" height="28.3465"/>
			<rect x="0" y="341.657" width="45.3543" height="28.3465" class="st6"/>
			<text x="13.55" y="361.23" class="st7" v:langID="2057"><v:paragraph v:horizAlign="1"/><v:tabList/>12</text>		</g>
		<g id="shape385-380" v:mID="385" v:groupContext="shape" transform="translate(675.396,-329.569)">
			<title>Sheet.385</title>
			<desc>13</desc>
			<v:textBlock v:margins="rect(4,4,4,4)" v:tabSpace="42.5197"/>
			<v:textRect cx="22.6772" cy="355.831" width="45.36" height="28.3465"/>
			<rect x="0" y="341.657" width="45.3543" height="28.3465" class="st6"/>
			<text x="13.55" y="361.23" class="st7" v:langID="2057"><v:paragraph v:horizAlign="1"/><v:tabList/>13</text>		</g>
		<g id="shape231-383" v:mID="231" v:groupContext="shape" transform="translate(176.498,-19.1752)">
			<title>Sheet.231</title>
			<desc>Ar</desc>
			<v:textBlock v:margins="rect(4,4,4,4)" v:tabSpace="42.5197"/>
			<v:textRect cx="22.6772" cy="355.831" width="45.36" height="28.3465"/>
			<rect x="0" y="341.657" width="45.3543" height="28.3465" class="st6"/>
			<text x="14.33" y="361.23" class="st7" v:langID="2057"><v:paragraph v:horizAlign="1"/><v:tabList/>Ar</text>		</g>
		<g id="shape258-386" v:mID="258" v:groupContext="shape" transform="translate(221.852,-17.7579)">
			<title>Sheet.258</title>
			<desc>Br</desc>
			<v:textBlock v:margins="rect(4,4,4,4)" v:tabSpace="42.5197"/>
			<v:textRect cx="22.6772" cy="355.831" width="45.36" height="28.3465"/>
			<rect x="0" y="341.657" width="45.3543" height="28.3465" class="st6"/>
			<text x="14.64" y="361.23" class="st7" v:langID="2057"><v:paragraph v:horizAlign="1"/><v:tabList/>Br</text>		</g>
		<g id="shape325-389" v:mID="325" v:groupContext="shape" transform="translate(312.561,-20.5925)">
			<title>Sheet.325</title>
			<desc>Cr</desc>
			<v:textBlock v:margins="rect(4,4,4,4)" v:tabSpace="42.5197"/>
			<v:textRect cx="22.6772" cy="355.831" width="45.36" height="28.3465"/>
			<rect x="0" y="341.657" width="45.3543" height="28.3465" class="st6"/>
			<text x="14.74" y="361.23" class="st7" v:langID="2057"><v:paragraph v:horizAlign="1"/><v:tabList/>Cr</text>		</g>
		<g id="shape386-392" v:mID="386" v:groupContext="shape" transform="translate(630.041,-20.5925)">
			<title>Sheet.386</title>
			<desc>Fr</desc>
			<v:textBlock v:margins="rect(4,4,4,4)" v:tabSpace="42.5197"/>
			<v:textRect cx="22.6772" cy="355.831" width="45.36" height="28.3465"/>
			<rect x="0" y="341.657" width="45.3543" height="28.3465" class="st6"/>
			<text x="15.4" y="361.23" class="st7" v:langID="2057"><v:paragraph v:horizAlign="1"/><v:tabList/>Fr</text>		</g>
		<g id="shape387-395" v:mID="387" v:groupContext="shape" transform="translate(357.915,-20.5925)">
			<title>Sheet.387</title>
			<desc>Dw</desc>
			<v:textBlock v:margins="rect(4,4,4,4)" v:tabSpace="42.5197"/>
			<v:textRect cx="22.6772" cy="355.831" width="45.36" height="28.3465"/>
			<rect x="0" y="341.657" width="45.3543" height="28.3465" class="st6"/>
			<text x="10.71" y="361.23" class="st7" v:langID="2057"><v:paragraph v:horizAlign="1"/><v:tabList/>Dw</text>		</g>
		<g id="shape388-398" v:mID="388" v:groupContext="shape" transform="translate(493.978,-20.5925)">
			<title>Sheet.388</title>
			<desc>Ew</desc>
			<v:textBlock v:margins="rect(4,4,4,4)" v:tabSpace="42.5197"/>
			<v:textRect cx="22.6772" cy="355.831" width="45.36" height="28.3465"/>
			<rect x="0" y="341.657" width="45.3543" height="28.3465" class="st6"/>
			<text x="11.85" y="361.23" class="st7" v:langID="2057"><v:paragraph v:horizAlign="1"/><v:tabList/>Ew</text>		</g>
	</g>
</svg>
