<?xml version="1.0" encoding="UTF-8" standalone="no"?>
<!DOCTYPE svg PUBLIC "-//W3C//DTD SVG 1.0//EN" "http://www.w3.org/TR/2001/REC-SVG-20010904/DTD/svg10.dtd">
<!-- Generated by Microsoft Visio 11.0, SVG Export, v1.0 avalon-waveforms-reactive-wait.svg Page-1 -->
<svg xmlns="http://www.w3.org/2000/svg" xmlns:xlink="http://www.w3.org/1999/xlink" xmlns:ev="http://www.w3.org/2001/xml-events"
		xmlns:v="http://schemas.microsoft.com/visio/2003/SVGExtensions/" width="10.3358in" height="5.13894in"
		viewBox="0 0 744.177 370.004" xml:space="preserve" color-interpolation-filters="sRGB" class="st16">
	<v:documentProperties v:langID="2057" v:metric="true" v:viewMarkup="false"/>

	<style type="text/css">
	<![CDATA[
		.st1 {fill:#ffffff;stroke:none;stroke-linecap:round;stroke-linejoin:round;stroke-width:0.75}
		.st2 {stroke:#d99690;stroke-linecap:round;stroke-linejoin:round;stroke-width:2.25}
		.st3 {stroke:#c4d6a0;stroke-linecap:round;stroke-linejoin:round;stroke-width:2.25}
		.st4 {stroke:#92cddc;stroke-linecap:round;stroke-linejoin:round;stroke-width:2.25}
		.st5 {stroke:#000000;stroke-linecap:round;stroke-linejoin:round;stroke-width:0.75}
		.st6 {fill:none;stroke:none;stroke-linecap:round;stroke-linejoin:round;stroke-width:0.75}
		.st7 {fill:#000000;font-family:Calibri;font-size:1.5em}
		.st8 {stroke:#000000;stroke-dasharray:0,3.75;stroke-linecap:round;stroke-linejoin:round;stroke-width:0.75}
		.st9 {stroke:#000000;stroke-dasharray:0,2.25;stroke-linecap:round;stroke-linejoin:round;stroke-width:0.75}
		.st10 {fill:#a5a5a5;stroke:#000000;stroke-linecap:round;stroke-linejoin:round;stroke-width:0.75}
		.st11 {fill:#d99690;stroke:#000000;stroke-linecap:round;stroke-linejoin:round;stroke-width:0.75}
		.st12 {fill:#ffffff;stroke:none;stroke-linecap:butt;stroke-width:7.2}
		.st13 {fill:#000000;font-family:Calibri;font-size:1.00001em}
		.st14 {fill:#c4d6a0;stroke:#000000;stroke-linecap:round;stroke-linejoin:round;stroke-width:0.75}
		.st15 {fill:#92cddc;stroke:#000000;stroke-linecap:round;stroke-linejoin:round;stroke-width:0.75}
		.st16 {fill:none;fill-rule:evenodd;font-size:12px;overflow:visible;stroke-linecap:square;stroke-miterlimit:3}
	]]>
	</style>

	<g v:mID="0" v:index="1" v:groupContext="foregroundPage">
		<title>Page-1</title>
		<v:pageProperties v:drawingScale="0.0393701" v:pageScale="0.0393701" v:drawingUnits="24" v:shadowOffsetX="8.50394"
				v:shadowOffsetY="-8.50394"/>
		<g id="shape390-1" v:mID="390" v:groupContext="shape" transform="translate(0.75,-0.75)">
			<title>Sheet.390</title>
			<rect x="0" y="1.5" width="742.677" height="368.504" class="st1"/>
		</g>
		<g id="shape209-3" v:mID="209" v:groupContext="shape" transform="translate(1011.38,80.1201) rotate(90)">
			<title>Sheet.209</title>
			<path d="M0 370 L243.78 370" class="st2"/>
		</g>
		<g id="shape198-6" v:mID="198" v:groupContext="shape" transform="translate(369.254,-46.1043)">
			<title>Sheet.198</title>
			<path d="M0 126.22 L0 290.63 L45.35 301.97 L45.35 324.65 L0 335.99 L0 370" class="st3"/>
		</g>
		<g id="shape197-9" v:mID="197" v:groupContext="shape" transform="translate(233.191,-46.1043)">
			<title>Sheet.197</title>
			<path d="M0 126.22 L0 290.63 L45.35 301.97 L45.35 324.65 L0 335.99 L0 370" class="st2"/>
		</g>
		<g id="shape201-12" v:mID="201" v:groupContext="shape" transform="translate(829.967,80.1201) rotate(90)">
			<title>Sheet.201</title>
			<path d="M0 370 L243.78 370" class="st4"/>
		</g>
		<g id="shape109-15" v:mID="109" v:groupContext="shape" transform="translate(119.805,-295.553)">
			<title>Sheet.109</title>
			<path d="M0 370 L22.68 370 L22.68 347.33 L45.35 347.33 L45.35 370" class="st5"/>
		</g>
		<g id="shape110-18" v:mID="110" v:groupContext="shape" transform="translate(165.159,-295.553)">
			<title>Sheet.110</title>
			<path d="M0 370 L22.68 370 L22.68 347.33 L45.35 347.33 L45.35 370" class="st5"/>
		</g>
		<g id="shape111-21" v:mID="111" v:groupContext="shape" transform="translate(210.514,-295.553)">
			<title>Sheet.111</title>
			<path d="M0 370 L22.68 370 L22.68 347.33 L45.35 347.33 L45.35 370" class="st5"/>
		</g>
		<g id="shape112-24" v:mID="112" v:groupContext="shape" transform="translate(255.868,-295.553)">
			<title>Sheet.112</title>
			<path d="M0 370 L22.68 370 L22.68 347.33 L45.35 347.33 L45.35 370" class="st5"/>
		</g>
		<g id="shape113-27" v:mID="113" v:groupContext="shape" transform="translate(301.222,-295.553)">
			<title>Sheet.113</title>
			<path d="M0 370 L22.68 370 L22.68 347.33 L45.35 347.33 L45.35 370" class="st5"/>
		</g>
		<g id="shape114-30" v:mID="114" v:groupContext="shape" transform="translate(68.7815,-267.207)">
			<title>Sheet.114</title>
			<desc>read</desc>
			<v:textBlock v:margins="rect(4,4,4,4)" v:tabSpace="42.5197"/>
			<v:textRect cx="25.5118" cy="364.335" width="51.03" height="11.3386"/>
			<rect x="0" y="358.665" width="51.0236" height="11.3386" class="st6"/>
			<text x="8.86" y="369.73" class="st7" v:langID="2057"><v:paragraph v:horizAlign="1"/><v:tabList/>read</text>		</g>
		<g id="shape115-33" v:mID="115" v:groupContext="shape" transform="translate(44.9705,-97.128)">
			<title>Sheet.115</title>
			<desc>readdata</desc>
			<v:textBlock v:margins="rect(4,4,4,4)" v:tabSpace="42.5197"/>
			<v:textRect cx="37.4173" cy="364.335" width="74.84" height="11.3386"/>
			<rect x="0" y="358.665" width="74.8346" height="11.3386" class="st6"/>
			<text x="4.4" y="369.73" class="st7" v:langID="2057"><v:paragraph v:horizAlign="1"/><v:tabList/>readdata</text>		</g>
		<g id="shape116-36" v:mID="116" v:groupContext="shape" transform="translate(512.486,34.7657) rotate(90)">
			<title>Sheet.116</title>
			<path d="M0 370 L294.8 370" class="st8"/>
		</g>
		<g id="shape117-39" v:mID="117" v:groupContext="shape" transform="translate(557.841,34.7657) rotate(90)">
			<title>Sheet.117</title>
			<path d="M0 370 L294.8 370" class="st8"/>
		</g>
		<g id="shape118-42" v:mID="118" v:groupContext="shape" transform="translate(603.195,34.7657) rotate(90)">
			<title>Sheet.118</title>
			<path d="M0 370 L294.8 370" class="st8"/>
		</g>
		<g id="shape119-45" v:mID="119" v:groupContext="shape" transform="translate(648.549,34.7657) rotate(90)">
			<title>Sheet.119</title>
			<path d="M0 370 L294.8 370" class="st8"/>
		</g>
		<g id="shape120-48" v:mID="120" v:groupContext="shape" transform="translate(68.7815,-233.191)">
			<title>Sheet.120</title>
			<desc>write</desc>
			<v:textBlock v:margins="rect(4,4,4,4)" v:tabSpace="42.5197"/>
			<v:textRect cx="25.5118" cy="364.335" width="51.03" height="11.3386"/>
			<rect x="0" y="358.665" width="51.0236" height="11.3386" class="st6"/>
			<text x="6.38" y="369.73" class="st7" v:langID="2057"><v:paragraph v:horizAlign="1"/><v:tabList/>write</text>		</g>
		<g id="shape121-51" v:mID="121" v:groupContext="shape" transform="translate(119.805,-227.522)">
			<title>Sheet.121</title>
			<path d="M0 370 L300.47 370" class="st5"/>
		</g>
		<g id="shape122-54" v:mID="122" v:groupContext="shape" transform="translate(119.805,-272.876)">
			<title>Sheet.122</title>
			<path d="M0 370 L595.28 370" class="st9"/>
		</g>
		<g id="shape123-57" v:mID="123" v:groupContext="shape" transform="translate(119.805,-238.86)">
			<title>Sheet.123</title>
			<path d="M0 370 L595.28 370" class="st9"/>
		</g>
		<g id="shape124-60" v:mID="124" v:groupContext="shape" transform="translate(119.805,-102.797)">
			<title>Sheet.124</title>
			<path d="M0 370 L164.41 370" class="st9"/>
		</g>
		<g id="shape125-63" v:mID="125" v:groupContext="shape" transform="translate(68.7815,-199.175)">
			<title>Sheet.125</title>
			<desc>addr</desc>
			<v:textBlock v:margins="rect(4,4,4,4)" v:tabSpace="42.5197"/>
			<v:textRect cx="25.5118" cy="364.335" width="51.03" height="11.3386"/>
			<rect x="0" y="358.665" width="51.0236" height="11.3386" class="st6"/>
			<text x="8.61" y="369.73" class="st7" v:langID="2057"><v:paragraph v:horizAlign="1"/><v:tabList/>addr</text>		</g>
		<g id="shape126-66" v:mID="126" v:groupContext="shape" transform="translate(119.805,-204.844)">
			<title>Sheet.126</title>
			<path d="M0 370 L164.41 370" class="st9"/>
		</g>
		<g id="shape127-69" v:mID="127" v:groupContext="shape" transform="translate(36.4665,-131.144)">
			<title>Sheet.127</title>
			<desc>writedata</desc>
			<v:textBlock v:margins="rect(4,4,4,4)" v:tabSpace="42.5197"/>
			<v:textRect cx="41.6693" cy="364.335" width="83.34" height="11.3386"/>
			<rect x="0" y="358.665" width="83.3386" height="11.3386" class="st6"/>
			<text x="6.17" y="369.73" class="st7" v:langID="2057"><v:paragraph v:horizAlign="1"/><v:tabList/>writedata</text>		</g>
		<g id="shape128-72" v:mID="128" v:groupContext="shape" transform="translate(119.805,-136.813)">
			<title>Sheet.128</title>
			<path d="M0 370 L306.14 370" class="st9"/>
		</g>
		<g id="shape129-75" v:mID="129" v:groupContext="shape" transform="translate(23.4272,-165.159)">
			<title>Sheet.129</title>
			<desc>byteenable</desc>
			<v:textBlock v:margins="rect(4,4,4,4)" v:tabSpace="42.5197"/>
			<v:textRect cx="48.189" cy="364.335" width="96.38" height="11.3386"/>
			<rect x="0" y="358.665" width="96.378" height="11.3386" class="st6"/>
			<text x="7.1" y="369.73" class="st7" v:langID="2057"><v:paragraph v:horizAlign="1"/><v:tabList/>byteenable</text>		</g>
		<g id="shape130-78" v:mID="130" v:groupContext="shape" transform="translate(119.805,-170.829)">
			<title>Sheet.130</title>
			<path d="M0 370 L164.41 370" class="st9"/>
		</g>
		<g id="shape131-81" v:mID="131" v:groupContext="shape" transform="translate(346.577,-295.553)">
			<title>Sheet.131</title>
			<path d="M0 370 L22.68 370 L22.68 347.33 L45.35 347.33 L45.35 370" class="st5"/>
		</g>
		<g id="shape132-84" v:mID="132" v:groupContext="shape" transform="translate(391.931,-295.553)">
			<title>Sheet.132</title>
			<path d="M0 370 L22.68 370 L22.68 347.33 L45.35 347.33 L45.35 370" class="st5"/>
		</g>
		<g id="shape133-87" v:mID="133" v:groupContext="shape" transform="translate(693.904,34.7657) rotate(90)">
			<title>Sheet.133</title>
			<path d="M0 370 L294.8 370" class="st8"/>
		</g>
		<g id="shape135-90" v:mID="135" v:groupContext="shape" transform="translate(784.612,34.7657) rotate(90)">
			<title>Sheet.135</title>
			<path d="M0 370 L294.8 370" class="st8"/>
		</g>
		<g id="shape136-93" v:mID="136" v:groupContext="shape" transform="translate(119.805,-261.537)">
			<title>Sheet.136</title>
			<path d="M0 370 L28.35 370" class="st5"/>
		</g>
		<g id="shape137-96" v:mID="137" v:groupContext="shape" transform="translate(148.152,-261.537)">
			<title>Sheet.137</title>
			<path d="M0 370 L5.67 347.33 L45.35 347.33" class="st5"/>
		</g>
		<g id="shape141-99" v:mID="141" v:groupContext="shape" transform="translate(329.569,-284.215)">
			<title>Sheet.141</title>
			<path d="M0 370 L45.35 370" class="st5"/>
		</g>
		<g id="shape142-102" v:mID="142" v:groupContext="shape" transform="translate(374.923,-261.537)">
			<title>Sheet.142</title>
			<path d="M0 347.33 L5.67 370 L45.35 370" class="st5"/>
		</g>
		<g id="shape143-105" v:mID="143" v:groupContext="shape" transform="translate(119.805,-193.506)">
			<title>Sheet.143</title>
			<path d="M0 347.33 L0 370 L28.35 370 L31.18 358.67 L28.35 347.33 L0 347.33 Z" class="st10"/>
		</g>
		<g id="shape144-107" v:mID="144" v:groupContext="shape" transform="translate(119.805,-159.49)">
			<title>Sheet.144</title>
			<path d="M0 347.33 L0 370 L28.35 370 L31.18 358.67 L28.35 347.33 L0 347.33 Z" class="st10"/>
		</g>
		<g id="shape145-109" v:mID="145" v:groupContext="shape" transform="translate(437.285,-295.553)">
			<title>Sheet.145</title>
			<path d="M0 370 L22.68 370 L22.68 347.33 L45.35 347.33 L45.35 370" class="st5"/>
		</g>
		<g id="shape146-112" v:mID="146" v:groupContext="shape" transform="translate(482.64,-295.553)">
			<title>Sheet.146</title>
			<path d="M0 370 L22.68 370 L22.68 347.33 L45.35 347.33 L45.35 370" class="st5"/>
		</g>
		<g id="shape147-115" v:mID="147" v:groupContext="shape" transform="translate(527.994,-295.553)">
			<title>Sheet.147</title>
			<path d="M0 370 L22.68 370 L22.68 347.33 L45.35 347.33 L45.35 370" class="st5"/>
		</g>
		<g id="shape148-118" v:mID="148" v:groupContext="shape" transform="translate(664.057,-295.553)">
			<title>Sheet.148</title>
			<path d="M0 370 L22.68 370 L22.68 347.33 L45.35 347.33 L45.35 370" class="st5"/>
		</g>
		<g id="shape161-121" v:mID="161" v:groupContext="shape" transform="translate(420.278,-227.522)">
			<title>Sheet.161</title>
			<path d="M0 370 L5.67 347.33 L45.35 347.33" class="st5"/>
		</g>
		<g id="shape165-124" v:mID="165" v:groupContext="shape" transform="translate(119.805,-125.474)">
			<title>Sheet.165</title>
			<path d="M255.12 347.33 L0 347.33 L0 358.67 L0 370 L255.12 370 L258.52 358.67 L255.12 347.33 Z" class="st10"/>
		</g>
		<g id="shape172-126" v:mID="172" v:groupContext="shape" transform="translate(119.805,-91.4587)">
			<title>Sheet.172</title>
			<path d="M119.06 347.33 L0 347.33 L0 358.67 L0 370 L119.06 370 L121.89 358.67 L119.06 347.33 Z" class="st10"/>
		</g>
		<g id="shape179-128" v:mID="179" v:groupContext="shape" transform="translate(420.278,-261.537)">
			<title>Sheet.179</title>
			<path d="M0 370 L272.13 370" class="st5"/>
		</g>
		<g id="shape185-131" v:mID="185" v:groupContext="shape" transform="translate(119.805,-68.7815)">
			<title>Sheet.185</title>
			<path d="M0 370 L595.28 370" class="st9"/>
		</g>
		<g id="shape186-134" v:mID="186" v:groupContext="shape" transform="translate(9.25394,-63.1122)">
			<title>Sheet.186</title>
			<desc>waitrequest</desc>
			<v:textBlock v:margins="rect(4,4,4,4)" v:tabSpace="42.5197"/>
			<v:textRect cx="54.1417" cy="364.335" width="108.29" height="11.3386"/>
			<rect x="0" y="358.665" width="108.283" height="11.3386" class="st6"/>
			<text x="10.23" y="369.73" class="st7" v:langID="2057"><v:paragraph v:horizAlign="1"/><v:tabList/>waitrequest</text>		</g>
		<g id="shape188-137" v:mID="188" v:groupContext="shape" transform="translate(715.081,444.455) rotate(180)">
			<title>Sheet.188</title>
			<path d="M0 370 L5.67 370" class="st5"/>
		</g>
		<g id="shape189-140" v:mID="189" v:groupContext="shape" transform="translate(73.0335,-304.057)">
			<title>Sheet.189</title>
			<desc>clk</desc>
			<v:textBlock v:margins="rect(4,4,4,4)" v:tabSpace="42.5197"/>
			<v:textRect cx="25.5118" cy="364.335" width="51.03" height="11.3386"/>
			<rect x="0" y="358.665" width="51.0236" height="11.3386" class="st6"/>
			<text x="15.55" y="369.73" class="st7" v:langID="2057"><v:paragraph v:horizAlign="1"/><v:tabList/>clk</text>		</g>
		<g id="shape196-143" v:mID="196" v:groupContext="shape" transform="translate(573.348,-295.553)">
			<title>Sheet.196</title>
			<path d="M0 370 L22.68 370 L22.68 347.33 L45.35 347.33 L45.35 370" class="st5"/>
		</g>
		<g id="shape202-146" v:mID="202" v:groupContext="shape" transform="translate(618.703,-295.553)">
			<title>Sheet.202</title>
			<path d="M0 370 L22.68 370 L22.68 347.33 L45.35 347.33 L45.35 370" class="st5"/>
		</g>
		<g id="shape203-149" v:mID="203" v:groupContext="shape" transform="translate(829.967,34.7657) rotate(90)">
			<title>Sheet.203</title>
			<path d="M0 370 L294.8 370" class="st8"/>
		</g>
		<g id="shape204-152" v:mID="204" v:groupContext="shape" transform="translate(875.321,34.7657) rotate(90)">
			<title>Sheet.204</title>
			<path d="M0 370 L294.8 370" class="st8"/>
		</g>
		<g id="shape205-155" v:mID="205" v:groupContext="shape" transform="translate(920.675,34.7657) rotate(90)">
			<title>Sheet.205</title>
			<path d="M0 370 L294.8 370" class="st8"/>
		</g>
		<g id="shape206-158" v:mID="206" v:groupContext="shape" transform="translate(966.03,34.7657) rotate(90)">
			<title>Sheet.206</title>
			<path d="M0 370 L294.8 370" class="st8"/>
		</g>
		<g id="shape207-161" v:mID="207" v:groupContext="shape" transform="translate(1011.38,34.7657) rotate(90)">
			<title>Sheet.207</title>
			<path d="M0 370 L294.8 370" class="st8"/>
		</g>
		<g id="shape208-164" v:mID="208" v:groupContext="shape" transform="translate(1056.74,34.7657) rotate(90)">
			<title>Sheet.208</title>
			<path d="M0 370 L294.8 370" class="st8"/>
		</g>
		<g id="shape150-167" v:mID="150" v:groupContext="shape" transform="translate(193.506,-57.4429)">
			<title>Sheet.150</title>
			<path d="M0 347.33 L5.67 370 L45.35 370" class="st5"/>
		</g>
		<g id="shape151-170" v:mID="151" v:groupContext="shape" transform="translate(238.86,-57.4429)">
			<title>Sheet.151</title>
			<path d="M0 370 L5.67 347.33 L45.35 347.33" class="st5"/>
		</g>
		<g id="shape153-173" v:mID="153" v:groupContext="shape" transform="translate(150.986,-193.506)">
			<title>Sheet.153</title>
			<desc>addr</desc>
			<v:textBlock v:margins="rect(4,4,4,4)" v:tabSpace="42.5197"/>
			<v:textRect cx="45.3543" cy="358.665" width="90.71" height="22.6772"/>
			<path d="M87.87 347.33 L2.83 347.33 L0 358.67 L2.83 370 L87.87 370 L90.71 358.67 L87.87 347.33 Z" class="st11"/>
			<rect v:rectContext="textBkgnd" x="34.0837" y="351.465" width="22.5412" height="14.4001" class="st12"/>
			<text x="34.08" y="362.27" class="st13" v:langID="2057"><v:paragraph v:horizAlign="1"/><v:tabList/>addr</text>		</g>
		<g id="shape155-177" v:mID="155" v:groupContext="shape" transform="translate(241.695,-91.4587)">
			<title>Sheet.155</title>
			<desc>data</desc>
			<v:textBlock v:margins="rect(4,4,4,4)" v:tabSpace="42.5197"/>
			<v:textRect cx="22.6772" cy="358.665" width="45.36" height="22.6772"/>
			<path d="M42.52 347.33 L2.83 347.33 L0 358.67 L2.83 370 L42.52 370 L45.35 358.67 L42.52 347.33 Z" class="st11"/>
			<rect v:rectContext="textBkgnd" x="11.7669" y="351.465" width="21.8205" height="14.4001" class="st12"/>
			<text x="11.77" y="362.27" class="st13" v:langID="2057"><v:paragraph v:horizAlign="1"/><v:tabList/>data</text>		</g>
		<g id="shape154-181" v:mID="154" v:groupContext="shape" transform="translate(150.986,-159.49)">
			<title>Sheet.154</title>
			<desc>byten</desc>
			<v:textBlock v:margins="rect(4,4,4,4)" v:tabSpace="42.5197"/>
			<v:textRect cx="45.3543" cy="358.665" width="90.71" height="22.6772"/>
			<path d="M87.87 347.33 L2.83 347.33 L0 358.67 L2.83 370 L87.87 370 L90.71 358.67 L87.87 347.33 Z" class="st11"/>
			<rect v:rectContext="textBkgnd" x="31.3385" y="351.465" width="28.0316" height="14.4001" class="st12"/>
			<text x="31.34" y="362.27" class="st13" v:langID="2057"><v:paragraph v:horizAlign="1"/><v:tabList/>byten</text>		</g>
		<g id="shape138-185" v:mID="138" v:groupContext="shape" transform="translate(193.506,-284.215)">
			<title>Sheet.138</title>
			<path d="M0 370 L45.35 370" class="st5"/>
		</g>
		<g id="shape139-188" v:mID="139" v:groupContext="shape" transform="translate(238.86,-261.537)">
			<title>Sheet.139</title>
			<path d="M0 347.33 L5.67 370 L45.35 370" class="st5"/>
		</g>
		<g id="shape140-191" v:mID="140" v:groupContext="shape" transform="translate(241.411,-193.506)">
			<title>Sheet.140</title>
			<path d="M43.09 347.33 L3.4 347.33 L0 358.67 L3.4 370 L43.09 370 L45.92 358.67 L43.09 347.33 Z" class="st10"/>
		</g>
		<g id="shape156-193" v:mID="156" v:groupContext="shape" transform="translate(241.411,-159.49)">
			<title>Sheet.156</title>
			<path d="M43.09 347.33 L3.4 347.33 L0 358.67 L3.4 370 L43.09 370 L45.92 358.67 L43.09 347.33 Z" class="st10"/>
		</g>
		<g id="shape152-195" v:mID="152" v:groupContext="shape" transform="translate(284.215,-80.1201)">
			<title>Sheet.152</title>
			<path d="M0 370 L45.35 370" class="st5"/>
		</g>
		<g id="shape157-198" v:mID="157" v:groupContext="shape" transform="translate(287.049,-193.506)">
			<title>Sheet.157</title>
			<desc>addr</desc>
			<v:textBlock v:margins="rect(4,4,4,4)" v:tabSpace="42.5197"/>
			<v:textRect cx="45.3543" cy="358.665" width="90.71" height="22.6772"/>
			<path d="M87.87 347.33 L2.83 347.33 L0 358.67 L2.83 370 L87.87 370 L90.71 358.67 L87.87 347.33 Z" class="st14"/>
			<rect v:rectContext="textBkgnd" x="34.0837" y="351.465" width="22.5412" height="14.4001" class="st12"/>
			<text x="34.08" y="362.27" class="st13" v:langID="2057"><v:paragraph v:horizAlign="1"/><v:tabList/>addr</text>		</g>
		<g id="shape158-202" v:mID="158" v:groupContext="shape" transform="translate(287.049,-159.49)">
			<title>Sheet.158</title>
			<desc>byten</desc>
			<v:textBlock v:margins="rect(4,4,4,4)" v:tabSpace="42.5197"/>
			<v:textRect cx="45.3543" cy="358.665" width="90.71" height="22.6772"/>
			<path d="M87.87 347.33 L2.83 347.33 L0 358.67 L2.83 370 L87.87 370 L90.71 358.67 L87.87 347.33 Z" class="st14"/>
			<rect v:rectContext="textBkgnd" x="31.3385" y="351.465" width="28.0316" height="14.4001" class="st12"/>
			<text x="31.34" y="362.27" class="st13" v:langID="2057"><v:paragraph v:horizAlign="1"/><v:tabList/>byten</text>		</g>
		<g id="shape159-206" v:mID="159" v:groupContext="shape" transform="translate(329.569,-57.4429)">
			<title>Sheet.159</title>
			<path d="M0 347.33 L5.67 370 L45.35 370" class="st5"/>
		</g>
		<g id="shape160-209" v:mID="160" v:groupContext="shape" transform="translate(374.923,-57.4429)">
			<title>Sheet.160</title>
			<path d="M0 370 L5.67 347.33 L45.35 347.33" class="st5"/>
		</g>
		<g id="shape166-212" v:mID="166" v:groupContext="shape" transform="translate(287.049,-91.4587)">
			<title>Sheet.166</title>
			<path d="M87.87 347.33 L2.83 347.33 L0 358.67 L2.83 370 L87.87 370 L90.71 358.1 L87.87 347.33 Z" class="st10"/>
		</g>
		<g id="shape167-214" v:mID="167" v:groupContext="shape" transform="translate(284.215,-261.537)">
			<title>Sheet.167</title>
			<path d="M0 370 L5.67 347.33 L45.35 347.33" class="st5"/>
		</g>
		<g id="shape168-217" v:mID="168" v:groupContext="shape" transform="translate(377.758,-91.4587)">
			<title>Sheet.168</title>
			<desc>data</desc>
			<v:textBlock v:margins="rect(4,4,4,4)" v:tabSpace="42.5197"/>
			<v:textRect cx="22.6772" cy="358.665" width="45.36" height="22.6772"/>
			<path d="M42.52 347.33 L2.83 347.33 L0 358.67 L2.83 370 L42.52 370 L45.35 358.67 L42.52 347.33 Z" class="st14"/>
			<rect v:rectContext="textBkgnd" x="11.7669" y="351.465" width="21.8205" height="14.4001" class="st12"/>
			<text x="11.77" y="362.27" class="st13" v:langID="2057"><v:paragraph v:horizAlign="1"/><v:tabList/>data</text>		</g>
		<g id="shape170-221" v:mID="170" v:groupContext="shape" transform="translate(420.278,-57.4429)">
			<title>Sheet.170</title>
			<path d="M0 347.33 L5.67 370 L45.35 370" class="st5"/>
		</g>
		<g id="shape174-224" v:mID="174" v:groupContext="shape" transform="translate(377.758,-193.506)">
			<title>Sheet.174</title>
			<desc>addr</desc>
			<v:textBlock v:margins="rect(4,4,4,4)" v:tabSpace="42.5197"/>
			<v:textRect cx="45.3543" cy="358.665" width="90.71" height="22.6772"/>
			<path d="M87.87 347.33 L2.83 347.33 L0 358.67 L2.83 370 L87.87 370 L90.71 358.67 L87.87 347.33 Z" class="st15"/>
			<rect v:rectContext="textBkgnd" x="34.0837" y="351.465" width="22.5412" height="14.4001" class="st12"/>
			<text x="34.08" y="362.27" class="st13" v:langID="2057"><v:paragraph v:horizAlign="1"/><v:tabList/>addr</text>		</g>
		<g id="shape175-228" v:mID="175" v:groupContext="shape" transform="translate(377.758,-159.49)">
			<title>Sheet.175</title>
			<desc>byten</desc>
			<v:textBlock v:margins="rect(4,4,4,4)" v:tabSpace="42.5197"/>
			<v:textRect cx="45.3543" cy="358.665" width="90.71" height="22.6772"/>
			<path d="M87.87 347.33 L2.83 347.33 L0 358.67 L2.83 370 L87.87 370 L90.71 358.67 L87.87 347.33 Z" class="st15"/>
			<rect v:rectContext="textBkgnd" x="31.3385" y="351.465" width="28.0316" height="14.4001" class="st12"/>
			<text x="31.34" y="362.27" class="st13" v:langID="2057"><v:paragraph v:horizAlign="1"/><v:tabList/>byten</text>		</g>
		<g id="shape176-232" v:mID="176" v:groupContext="shape" transform="translate(378.892,-125.474)">
			<title>Sheet.176</title>
			<desc>data</desc>
			<v:textBlock v:margins="rect(4,4,4,4)" v:tabSpace="42.5197"/>
			<v:textRect cx="45.3543" cy="358.665" width="90.71" height="22.6772"/>
			<path d="M87.87 347.33 L2.83 347.33 L0 358.67 L2.83 370 L87.87 370 L90.71 358.67 L87.87 347.33 Z" class="st15"/>
			<rect v:rectContext="textBkgnd" x="34.4441" y="351.465" width="21.8205" height="14.4001" class="st12"/>
			<text x="34.44" y="362.27" class="st13" v:langID="2057"><v:paragraph v:horizAlign="1"/><v:tabList/>data</text>		</g>
		<g id="shape177-236" v:mID="177" v:groupContext="shape" transform="translate(423.112,-91.4587)">
			<title>Sheet.177</title>
			<path d="M274.96 347.33 L2.83 347.33 L0 358.67 L2.83 370 L274.96 370 L274.96 355.83 L274.96 347.33 Z" class="st10"/>
		</g>
		<g id="shape178-238" v:mID="178" v:groupContext="shape" transform="translate(465.632,-57.4429)">
			<title>Sheet.178</title>
			<path d="M0 370 L5.67 347.33 L45.35 347.33" class="st5"/>
		</g>
		<g id="shape180-241" v:mID="180" v:groupContext="shape" transform="translate(556.341,-80.1201)">
			<title>Sheet.180</title>
			<path d="M0 370 L45.35 370" class="st5"/>
		</g>
		<g id="shape162-244" v:mID="162" v:groupContext="shape" transform="translate(465.632,-250.199)">
			<title>Sheet.162</title>
			<path d="M0 370 L45.35 370" class="st5"/>
		</g>
		<g id="shape163-247" v:mID="163" v:groupContext="shape" transform="translate(510.986,-250.199)">
			<title>Sheet.163</title>
			<path d="M0 370 L45.35 370" class="st5"/>
		</g>
		<g id="shape164-250" v:mID="164" v:groupContext="shape" transform="translate(556.341,-250.199)">
			<title>Sheet.164</title>
			<path d="M0 370 L45.35 370" class="st5"/>
		</g>
		<g id="shape182-253" v:mID="182" v:groupContext="shape" transform="translate(513.821,-193.506)">
			<title>Sheet.182</title>
			<desc>addr</desc>
			<v:textBlock v:margins="rect(4,4,4,4)" v:tabSpace="42.5197"/>
			<v:textRect cx="69.4488" cy="358.665" width="138.9" height="22.6772"/>
			<path d="M133.23 347.33 L2.83 347.33 L0 358.67 L2.83 370 L133.23 370 L138.9 358.67 L133.23 347.33 Z" class="st11"/>
			<rect v:rectContext="textBkgnd" x="58.1784" y="351.465" width="22.5412" height="14.4001" class="st12"/>
			<text x="58.18" y="362.27" class="st13" v:langID="2057"><v:paragraph v:horizAlign="1"/><v:tabList/>addr</text>		</g>
		<g id="shape190-257" v:mID="190" v:groupContext="shape" transform="translate(601.695,-57.4429)">
			<title>Sheet.190</title>
			<path d="M0 347.33 L5.67 370 L45.35 370" class="st5"/>
		</g>
		<g id="shape183-260" v:mID="183" v:groupContext="shape" transform="translate(513.821,-159.49)">
			<title>Sheet.183</title>
			<desc>byten</desc>
			<v:textBlock v:margins="rect(4,4,4,4)" v:tabSpace="42.5197"/>
			<v:textRect cx="69.4488" cy="358.665" width="138.9" height="22.6772"/>
			<path d="M133.23 347.33 L2.83 347.33 L0 358.67 L2.83 370 L133.23 370 L138.9 358.67 L133.23 347.33 Z" class="st11"/>
			<rect v:rectContext="textBkgnd" x="55.4332" y="351.465" width="28.0316" height="14.4001" class="st12"/>
			<text x="55.43" y="362.27" class="st13" v:langID="2057"><v:paragraph v:horizAlign="1"/><v:tabList/>byten</text>		</g>
		<g id="shape184-264" v:mID="184" v:groupContext="shape" transform="translate(513.821,-125.474)">
			<title>Sheet.184</title>
			<desc>data</desc>
			<v:textBlock v:margins="rect(4,4,4,4)" v:tabSpace="42.5197"/>
			<v:textRect cx="69.4488" cy="358.665" width="138.9" height="22.6772"/>
			<path d="M133.23 347.33 L2.83 347.33 L0 358.67 L2.83 370 L133.23 370 L138.9 358.67 L133.23 347.33 Z" class="st11"/>
			<rect v:rectContext="textBkgnd" x="58.5387" y="351.465" width="21.8205" height="14.4001" class="st12"/>
			<text x="58.54" y="362.27" class="st13" v:langID="2057"><v:paragraph v:horizAlign="1"/><v:tabList/>data</text>		</g>
		<g id="shape187-268" v:mID="187" v:groupContext="shape" transform="translate(601.695,-250.199)">
			<title>Sheet.187</title>
			<path d="M0 370 L45.35 370" class="st5"/>
		</g>
		<g id="shape191-271" v:mID="191" v:groupContext="shape" transform="translate(647.049,-227.522)">
			<title>Sheet.191</title>
			<path d="M0 347.33 L5.67 370 L45.35 370" class="st5"/>
		</g>
		<g id="shape192-274" v:mID="192" v:groupContext="shape" transform="translate(652.719,-193.506)">
			<title>Sheet.192</title>
			<path d="M43.09 347.33 L3.4 347.33 L0 358.67 L3.4 370 L43.09 370 L45.92 358.67 L43.09 347.33 Z" class="st10"/>
		</g>
		<g id="shape193-276" v:mID="193" v:groupContext="shape" transform="translate(652.719,-159.49)">
			<title>Sheet.193</title>
			<path d="M43.09 347.33 L3.4 347.33 L0 358.67 L3.4 370 L43.09 370 L45.92 358.67 L43.09 347.33 Z" class="st10"/>
		</g>
		<g id="shape194-278" v:mID="194" v:groupContext="shape" transform="translate(652.719,-125.474)">
			<title>Sheet.194</title>
			<path d="M43.09 347.33 L3.4 347.33 L0 358.67 L3.4 370 L43.09 370 L45.92 358.67 L43.09 347.33 Z" class="st10"/>
		</g>
		<g id="shape171-280" v:mID="171" v:groupContext="shape" transform="translate(467.9,-193.506)">
			<title>Sheet.171</title>
			<path d="M43.09 347.33 L3.4 347.33 L0 358.67 L3.4 370 L43.09 370 L45.92 358.67 L43.09 347.33 Z" class="st10"/>
		</g>
		<g id="shape173-282" v:mID="173" v:groupContext="shape" transform="translate(467.9,-159.49)">
			<title>Sheet.173</title>
			<path d="M43.09 347.33 L3.4 347.33 L0 358.67 L3.4 370 L43.09 370 L45.92 358.67 L43.09 347.33 Z" class="st10"/>
		</g>
		<g id="shape195-284" v:mID="195" v:groupContext="shape" transform="translate(468.183,-125.474)">
			<title>Sheet.195</title>
			<path d="M43.09 347.33 L3.4 347.33 L0 358.67 L3.4 370 L43.09 370 L45.92 358.67 L43.09 347.33 Z" class="st10"/>
		</g>
		<g id="shape199-286" v:mID="199" v:groupContext="shape" transform="translate(739.258,34.7657) rotate(90)">
			<title>Sheet.199</title>
			<path d="M0 370 L294.8 370" class="st8"/>
		</g>
		<g id="shape169-289" v:mID="169" v:groupContext="shape" transform="translate(510.986,-80.1201)">
			<title>Sheet.169</title>
			<path d="M0 370 L45.35 370" class="st5"/>
		</g>
		<g id="shape181-292" v:mID="181" v:groupContext="shape" transform="translate(647.049,-57.4429)">
			<title>Sheet.181</title>
			<path d="M0 370 L5.67 347.33 L45.35 347.33" class="st5"/>
		</g>
		<g id="shape149-295" v:mID="149" v:groupContext="shape" transform="translate(119.805,-80.1201)">
			<title>Sheet.149</title>
			<path d="M0 370 L73.7 370" class="st5"/>
		</g>
		<g id="shape358-298" v:mID="358" v:groupContext="shape" transform="translate(119.805,-329.569)">
			<title>Sheet.358</title>
			<desc>1</desc>
			<v:textBlock v:margins="rect(4,4,4,4)" v:tabSpace="42.5197"/>
			<v:textRect cx="22.6772" cy="355.831" width="45.36" height="28.3465"/>
			<rect x="0" y="341.657" width="45.3543" height="28.3465" class="st6"/>
			<text x="18.12" y="361.23" class="st7" v:langID="2057"><v:paragraph v:horizAlign="1"/><v:tabList/>1</text>		</g>
		<g id="shape359-301" v:mID="359" v:groupContext="shape" transform="translate(165.159,-329.569)">
			<title>Sheet.359</title>
			<desc>2</desc>
			<v:textBlock v:margins="rect(4,4,4,4)" v:tabSpace="42.5197"/>
			<v:textRect cx="22.6772" cy="355.831" width="45.36" height="28.3465"/>
			<rect x="0" y="341.657" width="45.3543" height="28.3465" class="st6"/>
			<text x="18.12" y="361.23" class="st7" v:langID="2057"><v:paragraph v:horizAlign="1"/><v:tabList/>2</text>		</g>
		<g id="shape360-304" v:mID="360" v:groupContext="shape" transform="translate(210.514,-329.569)">
			<title>Sheet.360</title>
			<desc>3</desc>
			<v:textBlock v:margins="rect(4,4,4,4)" v:tabSpace="42.5197"/>
			<v:textRect cx="22.6772" cy="355.831" width="45.36" height="28.3465"/>
			<rect x="0" y="341.657" width="45.3543" height="28.3465" class="st6"/>
			<text x="18.12" y="361.23" class="st7" v:langID="2057"><v:paragraph v:horizAlign="1"/><v:tabList/>3</text>		</g>
		<g id="shape361-307" v:mID="361" v:groupContext="shape" transform="translate(255.868,-329.569)">
			<title>Sheet.361</title>
			<desc>4</desc>
			<v:textBlock v:margins="rect(4,4,4,4)" v:tabSpace="42.5197"/>
			<v:textRect cx="22.6772" cy="355.831" width="45.36" height="28.3465"/>
			<rect x="0" y="341.657" width="45.3543" height="28.3465" class="st6"/>
			<text x="18.12" y="361.23" class="st7" v:langID="2057"><v:paragraph v:horizAlign="1"/><v:tabList/>4</text>		</g>
		<g id="shape362-310" v:mID="362" v:groupContext="shape" transform="translate(301.222,-329.569)">
			<title>Sheet.362</title>
			<desc>5</desc>
			<v:textBlock v:margins="rect(4,4,4,4)" v:tabSpace="42.5197"/>
			<v:textRect cx="22.6772" cy="355.831" width="45.36" height="28.3465"/>
			<rect x="0" y="341.657" width="45.3543" height="28.3465" class="st6"/>
			<text x="18.12" y="361.23" class="st7" v:langID="2057"><v:paragraph v:horizAlign="1"/><v:tabList/>5</text>		</g>
		<g id="shape363-313" v:mID="363" v:groupContext="shape" transform="translate(346.577,-329.569)">
			<title>Sheet.363</title>
			<desc>6</desc>
			<v:textBlock v:margins="rect(4,4,4,4)" v:tabSpace="42.5197"/>
			<v:textRect cx="22.6772" cy="355.831" width="45.36" height="28.3465"/>
			<rect x="0" y="341.657" width="45.3543" height="28.3465" class="st6"/>
			<text x="18.12" y="361.23" class="st7" v:langID="2057"><v:paragraph v:horizAlign="1"/><v:tabList/>6</text>		</g>
		<g id="shape364-316" v:mID="364" v:groupContext="shape" transform="translate(391.931,-329.569)">
			<title>Sheet.364</title>
			<desc>7</desc>
			<v:textBlock v:margins="rect(4,4,4,4)" v:tabSpace="42.5197"/>
			<v:textRect cx="22.6772" cy="355.831" width="45.36" height="28.3465"/>
			<rect x="0" y="341.657" width="45.3543" height="28.3465" class="st6"/>
			<text x="18.12" y="361.23" class="st7" v:langID="2057"><v:paragraph v:horizAlign="1"/><v:tabList/>7</text>		</g>
		<g id="shape365-319" v:mID="365" v:groupContext="shape" transform="translate(437.285,-329.569)">
			<title>Sheet.365</title>
			<desc>8</desc>
			<v:textBlock v:margins="rect(4,4,4,4)" v:tabSpace="42.5197"/>
			<v:textRect cx="22.6772" cy="355.831" width="45.36" height="28.3465"/>
			<rect x="0" y="341.657" width="45.3543" height="28.3465" class="st6"/>
			<text x="18.12" y="361.23" class="st7" v:langID="2057"><v:paragraph v:horizAlign="1"/><v:tabList/>8</text>		</g>
		<g id="shape366-322" v:mID="366" v:groupContext="shape" transform="translate(482.64,-329.569)">
			<title>Sheet.366</title>
			<desc>9</desc>
			<v:textBlock v:margins="rect(4,4,4,4)" v:tabSpace="42.5197"/>
			<v:textRect cx="22.6772" cy="355.831" width="45.36" height="28.3465"/>
			<rect x="0" y="341.657" width="45.3543" height="28.3465" class="st6"/>
			<text x="18.12" y="361.23" class="st7" v:langID="2057"><v:paragraph v:horizAlign="1"/><v:tabList/>9</text>		</g>
		<g id="shape367-325" v:mID="367" v:groupContext="shape" transform="translate(527.994,-329.569)">
			<title>Sheet.367</title>
			<desc>10</desc>
			<v:textBlock v:margins="rect(4,4,4,4)" v:tabSpace="42.5197"/>
			<v:textRect cx="22.6772" cy="355.831" width="45.36" height="28.3465"/>
			<rect x="0" y="341.657" width="45.3543" height="28.3465" class="st6"/>
			<text x="13.55" y="361.23" class="st7" v:langID="2057"><v:paragraph v:horizAlign="1"/><v:tabList/>10</text>		</g>
		<g id="shape368-328" v:mID="368" v:groupContext="shape" transform="translate(573.348,-329.569)">
			<title>Sheet.368</title>
			<desc>11</desc>
			<v:textBlock v:margins="rect(4,4,4,4)" v:tabSpace="42.5197"/>
			<v:textRect cx="22.6772" cy="355.831" width="45.36" height="28.3465"/>
			<rect x="0" y="341.657" width="45.3543" height="28.3465" class="st6"/>
			<text x="13.55" y="361.23" class="st7" v:langID="2057"><v:paragraph v:horizAlign="1"/><v:tabList/>11</text>		</g>
		<g id="shape369-331" v:mID="369" v:groupContext="shape" transform="translate(618.703,-329.569)">
			<title>Sheet.369</title>
			<desc>12</desc>
			<v:textBlock v:margins="rect(4,4,4,4)" v:tabSpace="42.5197"/>
			<v:textRect cx="22.6772" cy="355.831" width="45.36" height="28.3465"/>
			<rect x="0" y="341.657" width="45.3543" height="28.3465" class="st6"/>
			<text x="13.55" y="361.23" class="st7" v:langID="2057"><v:paragraph v:horizAlign="1"/><v:tabList/>12</text>		</g>
		<g id="shape370-334" v:mID="370" v:groupContext="shape" transform="translate(664.057,-329.569)">
			<title>Sheet.370</title>
			<desc>13</desc>
			<v:textBlock v:margins="rect(4,4,4,4)" v:tabSpace="42.5197"/>
			<v:textRect cx="22.6772" cy="355.831" width="45.36" height="28.3465"/>
			<rect x="0" y="341.657" width="45.3543" height="28.3465" class="st6"/>
			<text x="13.55" y="361.23" class="st7" v:langID="2057"><v:paragraph v:horizAlign="1"/><v:tabList/>13</text>		</g>
		<g id="shape134-337" v:mID="134" v:groupContext="shape" transform="translate(210.514,-17.7579)">
			<title>Sheet.134</title>
			<desc>Ar</desc>
			<v:textBlock v:margins="rect(4,4,4,4)" v:tabSpace="42.5197"/>
			<v:textRect cx="22.6772" cy="355.831" width="45.36" height="28.3465"/>
			<rect x="0" y="341.657" width="45.3543" height="28.3465" class="st6"/>
			<text x="14.33" y="361.23" class="st7" v:langID="2057"><v:paragraph v:horizAlign="1"/><v:tabList/>Ar</text>		</g>
		<g id="shape210-340" v:mID="210" v:groupContext="shape" transform="translate(346.577,-17.7579)">
			<title>Sheet.210</title>
			<desc>Br</desc>
			<v:textBlock v:margins="rect(4,4,4,4)" v:tabSpace="42.5197"/>
			<v:textRect cx="22.6772" cy="355.831" width="45.36" height="28.3465"/>
			<rect x="0" y="341.657" width="45.3543" height="28.3465" class="st6"/>
			<text x="14.64" y="361.23" class="st7" v:langID="2057"><v:paragraph v:horizAlign="1"/><v:tabList/>Br</text>		</g>
		<g id="shape371-343" v:mID="371" v:groupContext="shape" transform="translate(437.285,-17.7579)">
			<title>Sheet.371</title>
			<desc>Cw</desc>
			<v:textBlock v:margins="rect(4,4,4,4)" v:tabSpace="42.5197"/>
			<v:textRect cx="22.6772" cy="355.831" width="45.36" height="28.3465"/>
			<rect x="0" y="341.657" width="45.3543" height="28.3465" class="st6"/>
			<text x="11.44" y="361.23" class="st7" v:langID="2057"><v:paragraph v:horizAlign="1"/><v:tabList/>Cw</text>		</g>
		<g id="shape372-346" v:mID="372" v:groupContext="shape" transform="translate(618.703,-20.5925)">
			<title>Sheet.372</title>
			<desc>Dw</desc>
			<v:textBlock v:margins="rect(4,4,4,4)" v:tabSpace="42.5197"/>
			<v:textRect cx="22.6772" cy="355.831" width="45.36" height="28.3465"/>
			<rect x="0" y="341.657" width="45.3543" height="28.3465" class="st6"/>
			<text x="10.71" y="361.23" class="st7" v:langID="2057"><v:paragraph v:horizAlign="1"/><v:tabList/>Dw</text>		</g>
	</g>
</svg>
